<svg xmlns="http://www.w3.org/2000/svg" xmlns:xlink="http://www.w3.org/1999/xlink" width="640" zoomAndPan="magnify" viewBox="0 0 480 299.999988" height="400" preserveAspectRatio="xMidYMid meet" version="1.0"><defs><g/><clipPath id="e4d6fbfb72"><path d="M 240 2 L 428 2 L 428 159 L 240 159 Z M 240 2 " clip-rule="nonzero"/></clipPath><clipPath id="d72a3ad888"><path d="M 292.582031 -35.6875 L 470.492188 71.59375 L 417.820312 158.941406 L 239.910156 51.664062 Z M 292.582031 -35.6875 " clip-rule="nonzero"/></clipPath><clipPath id="5356fb4c06"><path d="M 292.582031 -35.6875 L 470.492188 71.59375 L 417.820312 158.941406 L 239.910156 51.664062 Z M 292.582031 -35.6875 " clip-rule="nonzero"/></clipPath></defs><rect x="-48" width="576" fill="#ffffff" y="-29.999999" height="359.999986" fill-opacity="1"/><rect x="-48" width="576" fill="#ffffff" y="-29.999999" height="359.999986" fill-opacity="1"/><rect x="-48" width="576" fill="#fefefe" y="-29.999999" height="359.999986" fill-opacity="1"/><g fill="#009ce6" fill-opacity="1"><g transform="translate(34.510436, 295.296615)"><g><path d="M 3.179688 -0.449219 L 6.417969 -0.910156 L 9.898438 -18.183594 L 9.953125 -18.191406 L 12.832031 -1.820312 L 16.039062 -2.273438 L 20.375 -22.605469 L 17.988281 -22.269531 L 14.488281 -4.542969 L 14.433594 -4.535156 L 11.4375 -21.339844 L 8.421875 -20.914062 L 4.863281 -3.179688 L 4.808594 -3.171875 L 1.839844 -19.980469 L -0.492188 -19.648438 Z M 3.179688 -0.449219 "/></g></g></g><g fill="#009ce6" fill-opacity="1"><g transform="translate(57.29426, 292.067933)"><g><path d="M 0.546875 -0.078125 L 10.695312 -1.515625 L 10.734375 -3.589844 L 2.8125 -2.46875 L 2.910156 -9.671875 L 9.488281 -10.601562 L 9.523438 -12.539062 L 2.941406 -11.605469 L 3.058594 -18.082031 L 10.738281 -19.171875 L 10.75 -21.242188 L 0.878906 -19.84375 Z M 0.546875 -0.078125 "/></g></g></g><g fill="#009ce6" fill-opacity="1"><g transform="translate(71.140183, 290.105836)"><g><path d="M 0.191406 -11.886719 L 1.257812 -12.039062 L 1.375 -19.914062 L 0.359375 -19.769531 Z M 0.191406 -11.886719 "/></g></g></g><g fill="#009ce6" fill-opacity="1"><g transform="translate(75.774063, 289.449172)"><g><path d="M 0.546875 -0.078125 L 9.40625 -1.332031 L 9.445312 -3.410156 L 2.894531 -2.480469 L 3.15625 -20.167969 L 0.878906 -19.84375 Z M 0.546875 -0.078125 "/></g></g></g><g fill="#009ce6" fill-opacity="1"><g transform="translate(87.920136, 287.72796)"><g><path d="M 0.546875 -0.078125 L 9.40625 -1.332031 L 9.445312 -3.410156 L 2.894531 -2.480469 L 3.15625 -20.167969 L 0.878906 -19.84375 Z M 0.546875 -0.078125 "/></g></g></g><g fill="#009ce6" fill-opacity="1"><g transform="translate(100.066212, 286.006747)"><g/></g></g><g fill="#009ce6" fill-opacity="1"><g transform="translate(106.125754, 285.148053)"><g><path d="M 0.546875 -0.078125 L 2.824219 -0.398438 L 3.136719 -16.554688 L 3.191406 -16.5625 L 8.089844 -1.144531 L 10.472656 -1.484375 L 15.9375 -18.398438 L 15.996094 -18.378906 L 15.683594 -2.222656 L 17.960938 -2.546875 L 18.292969 -22.3125 L 14.945312 -21.835938 L 9.289062 -4.113281 L 9.234375 -4.105469 L 4.144531 -20.304688 L 0.878906 -19.84375 Z M 0.546875 -0.078125 "/></g></g></g><g fill="#009ce6" fill-opacity="1"><g transform="translate(128.19674, 282.020388)"><g><path d="M -0.851562 0.121094 L 1.507812 -0.214844 L 2.90625 -5.140625 L 10.039062 -6.148438 L 11.296875 -1.601562 L 13.546875 -1.917969 L 8.144531 -20.875 L 5.15625 -20.449219 Z M 3.472656 -7.261719 L 6.679688 -18.597656 L 6.734375 -18.605469 L 9.535156 -8.121094 Z M 3.472656 -7.261719 "/></g></g></g><g fill="#009ce6" fill-opacity="1"><g transform="translate(144.510186, 279.70862)"><g><path d="M 0.546875 -0.078125 L 2.824219 -0.398438 L 2.980469 -7.582031 L 4.980469 -10.441406 L 9.953125 -1.410156 L 12.476562 -1.769531 L 6.371094 -12.484375 L 12.589844 -21.503906 L 9.792969 -21.105469 L 3.011719 -11.113281 L 2.984375 -11.109375 L 3.15625 -20.167969 L 0.878906 -19.84375 Z M 0.546875 -0.078125 "/></g></g></g><g fill="#009ce6" fill-opacity="1"><g transform="translate(159.75437, 277.548376)"><g><path d="M 0.546875 -0.078125 L 10.695312 -1.515625 L 10.734375 -3.589844 L 2.8125 -2.46875 L 2.910156 -9.671875 L 9.488281 -10.601562 L 9.523438 -12.539062 L 2.941406 -11.605469 L 3.058594 -18.082031 L 10.738281 -19.171875 L 10.75 -21.242188 L 0.878906 -19.84375 Z M 0.546875 -0.078125 "/></g></g></g><g fill="#009ce6" fill-opacity="1"><g transform="translate(173.600296, 275.586279)"><g/></g></g><g fill="#009ce6" fill-opacity="1"><g transform="translate(179.659838, 274.727585)"><g><path d="M 4.578125 -0.648438 L 6.882812 -0.976562 L 7.015625 -8.324219 L 12.617188 -21.507812 L 10.09375 -21.148438 L 5.882812 -10.792969 L 5.828125 -10.785156 L 1.894531 -19.988281 L -0.464844 -19.652344 L 4.738281 -8 Z M 4.578125 -0.648438 "/></g></g></g><g fill="#009ce6" fill-opacity="1"><g transform="translate(194.657282, 272.602306)"><g><path d="M 7.996094 -0.628906 C 13.972656 -1.476562 16.832031 -8.148438 15.914062 -14.617188 C 15.238281 -19.390625 12.328125 -21.96875 8.105469 -21.371094 C 2.070312 -20.515625 -0.730469 -13.824219 0.179688 -7.410156 C 0.859375 -2.613281 3.773438 -0.03125 7.996094 -0.628906 Z M 7.789062 -2.671875 C 4.910156 -2.261719 2.957031 -4.195312 2.453125 -7.761719 C 1.742188 -12.777344 3.648438 -18.667969 8.28125 -19.328125 C 11.160156 -19.734375 13.140625 -17.804688 13.648438 -14.214844 C 14.355469 -9.222656 12.449219 -3.332031 7.789062 -2.671875 Z M 7.789062 -2.671875 "/></g></g></g><g fill="#009ce6" fill-opacity="1"><g transform="translate(213.986581, 269.863164)"><g><path d="M 6.570312 -0.425781 C 10.460938 -0.980469 12.625 -3.46875 12.714844 -7.394531 L 12.945312 -21.554688 L 10.667969 -21.230469 L 10.441406 -7.242188 C 10.378906 -4.519531 8.941406 -2.832031 6.363281 -2.46875 C 3.867188 -2.113281 2.65625 -3.367188 2.679688 -5.972656 L 2.882812 -20.128906 L 0.605469 -19.804688 L 0.355469 -5.785156 C 0.265625 -1.882812 2.402344 0.164062 6.570312 -0.425781 Z M 6.570312 -0.425781 "/></g></g></g><g fill="#009ce6" fill-opacity="1"><g transform="translate(230.437111, 267.53197)"><g><path d="M 11.558594 -1.132812 C 12.519531 -1.269531 13.46875 -1.878906 14.140625 -3.039062 L 12.929688 -4.292969 C 12.53125 -3.539062 12.164062 -3.179688 11.78125 -3.125 C 11.371094 -3.066406 11.234375 -3.4375 11.113281 -4.09375 L 10.28125 -7.582031 C 10.074219 -8.644531 9.53125 -9.519531 8.695312 -9.902344 L 8.691406 -9.929688 C 11.832031 -11.046875 13.382812 -13.53125 12.9375 -16.65625 C 12.507812 -19.703125 10.449219 -21.199219 7.078125 -20.722656 L 0.878906 -19.84375 L 0.546875 -0.078125 L 2.824219 -0.398438 L 2.960938 -8.921875 L 5.507812 -9.285156 C 6.769531 -9.460938 7.699219 -8.644531 8.042969 -7.183594 L 9.039062 -3.128906 C 9.335938 -1.828125 10.078125 -0.925781 11.558594 -1.132812 Z M 3.003906 -10.96875 L 3.113281 -18.089844 L 6.980469 -18.640625 C 9.148438 -18.945312 10.441406 -18.09375 10.6875 -16.367188 C 11.050781 -13.789062 9.585938 -11.902344 6.761719 -11.503906 Z M 3.003906 -10.96875 "/></g></g></g><g fill="#009ce6" fill-opacity="1"><g transform="translate(246.997309, 265.185234)"><g/></g></g><g fill="#009ce6" fill-opacity="1"><g transform="translate(253.056851, 264.32654)"><g><path d="M 0.546875 -0.078125 L 2.824219 -0.398438 L 2.992188 -9.683594 L 10.339844 -10.722656 L 10.199219 -1.445312 L 12.476562 -1.769531 L 12.808594 -21.535156 L 10.503906 -21.207031 L 10.386719 -12.773438 L 3.035156 -11.730469 L 3.15625 -20.167969 L 0.878906 -19.84375 Z M 0.546875 -0.078125 "/></g></g></g><g fill="#009ce6" fill-opacity="1"><g transform="translate(269.644464, 261.97592)"><g><path d="M 7.996094 -0.628906 C 13.972656 -1.476562 16.832031 -8.148438 15.914062 -14.617188 C 15.238281 -19.390625 12.328125 -21.96875 8.105469 -21.371094 C 2.070312 -20.515625 -0.730469 -13.824219 0.179688 -7.410156 C 0.859375 -2.613281 3.773438 -0.03125 7.996094 -0.628906 Z M 7.789062 -2.671875 C 4.910156 -2.261719 2.957031 -4.195312 2.453125 -7.761719 C 1.742188 -12.777344 3.648438 -18.667969 8.28125 -19.328125 C 11.160156 -19.734375 13.140625 -17.804688 13.648438 -14.214844 C 14.355469 -9.222656 12.449219 -3.332031 7.789062 -2.671875 Z M 7.789062 -2.671875 "/></g></g></g><g fill="#009ce6" fill-opacity="1"><g transform="translate(288.973763, 259.236777)"><g><path d="M 0.546875 -0.078125 L 2.824219 -0.398438 L 3.136719 -16.554688 L 3.191406 -16.5625 L 8.089844 -1.144531 L 10.472656 -1.484375 L 15.9375 -18.398438 L 15.996094 -18.378906 L 15.683594 -2.222656 L 17.960938 -2.546875 L 18.292969 -22.3125 L 14.945312 -21.835938 L 9.289062 -4.113281 L 9.234375 -4.105469 L 4.144531 -20.304688 L 0.878906 -19.84375 Z M 0.546875 -0.078125 "/></g></g></g><g fill="#009ce6" fill-opacity="1"><g transform="translate(311.044749, 256.109112)"><g><path d="M 0.546875 -0.078125 L 10.695312 -1.515625 L 10.734375 -3.589844 L 2.8125 -2.46875 L 2.910156 -9.671875 L 9.488281 -10.601562 L 9.523438 -12.539062 L 2.941406 -11.605469 L 3.058594 -18.082031 L 10.738281 -19.171875 L 10.75 -21.242188 L 0.878906 -19.84375 Z M 0.546875 -0.078125 "/></g></g></g><g fill="#009ce6" fill-opacity="1"><g transform="translate(324.890675, 254.147015)"><g/></g></g><g fill="#009ce6" fill-opacity="1"><g transform="translate(330.950217, 253.288321)"><g><path d="M 6.402344 -0.402344 C 10.40625 -0.972656 12.910156 -3.453125 12.367188 -7.261719 C 12.066406 -9.402344 10.511719 -10.886719 7.804688 -11.652344 L 5.730469 -12.253906 C 3.921875 -12.777344 3.058594 -13.550781 2.863281 -14.921875 C 2.589844 -16.871094 3.703125 -18.675781 5.839844 -18.980469 C 8.089844 -19.300781 9.324219 -17.683594 9.296875 -15.132812 L 11.492188 -15.808594 C 11.535156 -19.257812 9.253906 -21.535156 5.828125 -21.046875 C 2.316406 -20.550781 0.105469 -17.804688 0.585938 -14.433594 C 0.882812 -12.320312 2.257812 -10.921875 4.589844 -10.246094 L 6.574219 -9.660156 C 8.789062 -9.023438 9.871094 -8.113281 10.082031 -6.632812 C 10.386719 -4.464844 8.914062 -2.828125 6.472656 -2.484375 C 3.648438 -2.082031 1.804688 -3.835938 1.832031 -7 L -0.421875 -6.34375 C -0.242188 -2.316406 2.621094 0.132812 6.402344 -0.402344 Z M 6.402344 -0.402344 "/></g></g></g><g fill="#009ce6" fill-opacity="1"><g transform="translate(346.304082, 251.112534)"><g><path d="M 0.546875 -0.078125 L 2.769531 -0.390625 L 2.917969 -8.414062 L 6.730469 -8.953125 C 11.035156 -9.5625 13.171875 -12.441406 12.59375 -16.523438 C 12.160156 -19.597656 10.066406 -21.144531 6.773438 -20.679688 L 0.878906 -19.84375 Z M 2.933594 -10.484375 L 3.058594 -18.082031 L 6.570312 -18.582031 C 8.734375 -18.886719 10.074219 -17.929688 10.339844 -16.066406 C 10.722656 -13.351562 9.265625 -11.382812 6.332031 -10.96875 Z M 2.933594 -10.484375 "/></g></g></g><g fill="#009ce6" fill-opacity="1"><g transform="translate(361.740201, 248.925092)"><g><path d="M -0.851562 0.121094 L 1.507812 -0.214844 L 2.90625 -5.140625 L 10.039062 -6.148438 L 11.296875 -1.601562 L 13.546875 -1.917969 L 8.144531 -20.875 L 5.15625 -20.449219 Z M 3.472656 -7.261719 L 6.679688 -18.597656 L 6.734375 -18.605469 L 9.535156 -8.121094 Z M 3.472656 -7.261719 "/></g></g></g><g fill="#009ce6" fill-opacity="1"><g transform="translate(378.053648, 246.613323)"><g><path d="M 11.558594 -1.132812 C 12.519531 -1.269531 13.46875 -1.878906 14.140625 -3.039062 L 12.929688 -4.292969 C 12.53125 -3.539062 12.164062 -3.179688 11.78125 -3.125 C 11.371094 -3.066406 11.234375 -3.4375 11.113281 -4.09375 L 10.28125 -7.582031 C 10.074219 -8.644531 9.53125 -9.519531 8.695312 -9.902344 L 8.691406 -9.929688 C 11.832031 -11.046875 13.382812 -13.53125 12.9375 -16.65625 C 12.507812 -19.703125 10.449219 -21.199219 7.078125 -20.722656 L 0.878906 -19.84375 L 0.546875 -0.078125 L 2.824219 -0.398438 L 2.960938 -8.921875 L 5.507812 -9.285156 C 6.769531 -9.460938 7.699219 -8.644531 8.042969 -7.183594 L 9.039062 -3.128906 C 9.335938 -1.828125 10.078125 -0.925781 11.558594 -1.132812 Z M 3.003906 -10.96875 L 3.113281 -18.089844 L 6.980469 -18.640625 C 9.148438 -18.945312 10.441406 -18.09375 10.6875 -16.367188 C 11.050781 -13.789062 9.585938 -11.902344 6.761719 -11.503906 Z M 3.003906 -10.96875 "/></g></g></g><g fill="#009ce6" fill-opacity="1"><g transform="translate(394.613858, 244.266586)"><g><path d="M 0.546875 -0.078125 L 2.824219 -0.398438 L 2.980469 -7.582031 L 4.980469 -10.441406 L 9.953125 -1.410156 L 12.476562 -1.769531 L 6.371094 -12.484375 L 12.589844 -21.503906 L 9.792969 -21.105469 L 3.011719 -11.113281 L 2.984375 -11.109375 L 3.15625 -20.167969 L 0.878906 -19.84375 Z M 0.546875 -0.078125 "/></g></g></g><g fill="#009ce6" fill-opacity="1"><g transform="translate(409.858042, 242.106343)"><g><path d="M 0.546875 -0.078125 L 9.40625 -1.332031 L 9.445312 -3.410156 L 2.894531 -2.480469 L 3.15625 -20.167969 L 0.878906 -19.84375 Z M 0.546875 -0.078125 "/></g></g></g><g fill="#009ce6" fill-opacity="1"><g transform="translate(422.004118, 240.38513)"><g><path d="M 0.546875 -0.078125 L 10.695312 -1.515625 L 10.734375 -3.589844 L 2.8125 -2.46875 L 2.910156 -9.671875 L 9.488281 -10.601562 L 9.523438 -12.539062 L 2.941406 -11.605469 L 3.058594 -18.082031 L 10.738281 -19.171875 L 10.75 -21.242188 L 0.878906 -19.84375 Z M 0.546875 -0.078125 "/></g></g></g><g fill="#183b6b" fill-opacity="1"><g transform="translate(103.156052, 176.024097)"><g><path d="M 11.792969 0.046875 C 12.773438 0.03125 13.425781 -0.550781 13.53125 -1.550781 L 17.226562 -30.925781 L 34.199219 -33.332031 L 32.238281 -17.707031 C 31.457031 -11.085938 36.230469 -5.992188 42.589844 -6.160156 C 43.449219 -6.15625 44.085938 -6.863281 44.226562 -7.617188 L 53.402344 -82.339844 C 54.203125 -88.835938 49.410156 -94.050781 43.050781 -93.886719 C 42.191406 -93.886719 41.554688 -93.183594 41.414062 -92.429688 L 35.621094 -44.949219 L 18.769531 -42.5625 L 22.984375 -76.066406 C 23.78125 -82.5625 18.992188 -87.777344 12.632812 -87.613281 C 11.773438 -87.613281 11.136719 -86.910156 10.996094 -86.152344 L 5.289062 -40.652344 L 1.195312 -40.074219 C 0.113281 -39.917969 -0.609375 -38.957031 -0.335938 -37.890625 C 0.332031 -34.917969 1.480469 -32.867188 4.039062 -31.265625 L 1.558594 -11.515625 C 0.761719 -5.019531 5.382812 -0.148438 11.792969 0.046875 Z M 11.792969 0.046875 "/></g></g></g><g fill="#183b6b" fill-opacity="1"><g transform="translate(158.280567, 168.212437)"><g><path d="M 24.191406 -1.710938 C 38.375 -3.84375 44.132812 -15.214844 47.058594 -35.277344 C 50.367188 -57.84375 39.777344 -73.65625 25.261719 -66.074219 C 11.265625 -65.195312 3.789062 -52.105469 0.929688 -33.28125 C -2.828125 -8.683594 6.441406 3.875 24.191406 -1.710938 Z M 19.933594 -7.492188 C 12.871094 -9.683594 12.179688 -21.492188 14.015625 -33.664062 C 16.4375 -49.476562 18.476562 -57.625 24.015625 -59.265625 C 34.625 -60.648438 35.949219 -46.960938 33.976562 -34.894531 C 30.632812 -14.285156 28.03125 -6.671875 19.933594 -7.492188 Z M 19.933594 -7.492188 "/></g></g></g><g fill="#183b6b" fill-opacity="1"><g transform="translate(211.118254, 160.724841)"><g><path d="M 70.5625 -8.035156 C 82.480469 -9.722656 87.355469 -19.5 89.863281 -33.851562 C 90.230469 -36.484375 89.113281 -38.289062 86.226562 -39.597656 C 85.832031 -39.789062 85.367188 -39.601562 85.316406 -39.101562 C 82.542969 -21.398438 77.210938 -19.167969 73.359375 -18.621094 C 68.546875 -17.941406 67.707031 -21.257812 68.921875 -30.886719 L 71.179688 -49.621094 C 73.019531 -65.230469 70.550781 -71.386719 64.324219 -71.117188 C 55.335938 -73.035156 46.460938 -69.816406 42.304688 -57.5625 C 41.609375 -64.214844 40.101562 -68.789062 35.335938 -67.746094 C 28.21875 -68.582031 18.605469 -66.234375 14.8125 -56.613281 C 13.582031 -60.980469 11.4375 -64.851562 6.726562 -64.308594 C 5.882812 -64.1875 5.246094 -63.484375 5.109375 -62.726562 L -2.515625 -10.816406 C -3.363281 -4.679688 0.808594 0.5 7.460938 0.660156 C 8.578125 0.75 9.335938 0.0273438 9.4375 -0.96875 C 9.925781 -6.195312 10.363281 -10.921875 10.847656 -15.289062 C 14.734375 -46.78125 20.847656 -56.484375 29.773438 -58.488281 C 31.199219 -58.8125 32.214844 -57.726562 32.058594 -56.234375 L 25.789062 -15.5625 C 25.113281 -10.800781 27.152344 -6.792969 30.917969 -5.363281 L 34.816406 -3.828125 C 36.125 -3.277344 37.363281 -4.066406 37.535156 -5.441406 L 39.476562 -19.46875 C 43.722656 -50.152344 49.355469 -59.789062 57.816406 -62.460938 C 59.226562 -62.90625 60.394531 -61.597656 60.117188 -60.085938 L 56.34375 -35.609375 C 52.6875 -12.007812 57.203125 -6.140625 70.5625 -8.035156 Z M 70.5625 -8.035156 "/></g></g></g><g fill="#183b6b" fill-opacity="1"><g transform="translate(295.490044, 148.768569)"><g><path d="M 52.765625 -34.855469 C 52.371094 -35.046875 51.90625 -34.859375 51.871094 -34.238281 C 49.445312 -16.707031 39.902344 -13.878906 31.234375 -12.652344 C 23.410156 -11.542969 16.898438 -13.320312 14.742188 -21.609375 C 15.617188 -21.488281 16.597656 -21.503906 17.714844 -21.417969 C 27.339844 -21.0625 37.25 -27.378906 42.132812 -42.3125 C 46.757812 -56.472656 40.410156 -68.34375 28.441406 -66.15625 C 15.460938 -67.632812 3.898438 -59.117188 1.039062 -36 C -3.335938 -1 19.890625 -0.855469 28.4375 -2.066406 C 46.011719 -4.554688 54.257812 -14.808594 56.40625 -29.109375 C 56.769531 -31.742188 55.652344 -33.546875 52.765625 -34.855469 Z M 24.015625 -59.265625 C 31.699219 -58.761719 33.070312 -54.289062 30.738281 -44.75 C 27.960938 -35.761719 25.566406 -31.003906 14.011719 -30.222656 C 14.097656 -32.203125 14.289062 -34.316406 14.585938 -36.566406 C 16.578125 -50.234375 18.5625 -57.882812 24.015625 -59.265625 Z M 24.015625 -59.265625 "/></g></g></g><g fill="#183b6b" fill-opacity="1"><g transform="translate(346.392952, 141.55515)"><g/></g></g><g clip-path="url(#e4d6fbfb72)"><g clip-path="url(#d72a3ad888)"><g clip-path="url(#5356fb4c06)"><path fill="#009ce6" d="M 418.839844 157.117188 C 418.238281 158.117188 416.941406 158.4375 415.941406 157.835938 L 363.617188 126.285156 C 362.617188 125.683594 362.296875 124.382812 362.898438 123.386719 C 363.5 122.386719 364.796875 122.066406 365.796875 122.667969 L 418.121094 154.21875 C 419.121094 154.820312 419.441406 156.121094 418.839844 157.117188 Z M 410.714844 119.585938 C 411.863281 119.78125 412.957031 119.011719 413.15625 117.863281 C 413.355469 116.714844 412.589844 115.625 411.4375 115.421875 L 370.867188 108.382812 C 369.71875 108.183594 368.625 108.953125 368.425781 110.101562 C 368.273438 110.984375 368.691406 111.835938 369.417969 112.273438 C 369.632812 112.402344 369.878906 112.496094 370.144531 112.542969 Z M 427.574219 83.863281 C 427.34375 82.71875 426.230469 81.980469 425.085938 82.210938 L 370.421875 93.230469 C 369.277344 93.460938 368.539062 94.574219 368.769531 95.71875 C 368.890625 96.320312 369.257812 96.8125 369.75 97.109375 C 370.183594 97.371094 370.71875 97.480469 371.253906 97.371094 L 425.917969 86.351562 C 427.0625 86.121094 427.804688 85.007812 427.574219 83.863281 Z M 389.878906 65.535156 C 389.25 64.550781 387.945312 64.265625 386.960938 64.894531 L 364.515625 79.269531 C 363.535156 79.898438 363.246094 81.207031 363.875 82.1875 C 364.054688 82.46875 364.292969 82.695312 364.5625 82.855469 C 365.230469 83.257812 366.09375 83.277344 366.792969 82.828125 L 389.238281 68.453125 C 390.21875 67.824219 390.507812 66.519531 389.878906 65.535156 Z M 381.527344 17.949219 C 380.53125 17.347656 379.230469 17.667969 378.628906 18.667969 L 350.296875 65.652344 C 349.695312 66.648438 350.015625 67.949219 351.015625 68.550781 C 352.015625 69.152344 353.3125 68.828125 353.914062 67.832031 L 382.246094 20.847656 C 382.847656 19.847656 382.527344 18.550781 381.527344 17.949219 Z M 296.253906 80.734375 L 243.929688 49.183594 C 242.929688 48.578125 241.632812 48.902344 241.03125 49.898438 C 240.429688 50.898438 240.75 52.195312 241.746094 52.800781 L 294.074219 84.351562 C 295.070312 84.953125 296.371094 84.632812 296.972656 83.632812 C 297.574219 82.632812 297.253906 81.335938 296.253906 80.734375 Z M 306.523438 69.582031 L 287.390625 44.796875 C 286.679688 43.875 285.351562 43.707031 284.429688 44.417969 C 283.507812 45.132812 283.335938 46.457031 284.046875 47.378906 L 303.179688 72.164062 C 303.34375 72.375 303.539062 72.546875 303.757812 72.679688 C 304.484375 73.117188 305.429688 73.089844 306.140625 72.542969 C 307.0625 71.828125 307.234375 70.503906 306.523438 69.582031 Z M 302.839844 4.238281 C 302.507812 3.117188 301.335938 2.480469 300.214844 2.808594 C 299.097656 3.140625 298.457031 4.3125 298.789062 5.433594 L 316.082031 64.101562 C 316.234375 64.628906 316.578125 65.046875 317.015625 65.3125 C 317.503906 65.605469 318.109375 65.703125 318.703125 65.527344 C 319.820312 65.199219 320.460938 64.023438 320.128906 62.90625 Z M 338.125 27.28125 C 338.222656 26.117188 337.363281 25.097656 336.199219 25 C 335.035156 24.902344 334.015625 25.765625 333.917969 26.929688 L 331.023438 61.261719 C 330.957031 62.089844 331.375 62.84375 332.039062 63.246094 C 332.308594 63.410156 332.617188 63.511719 332.953125 63.542969 C 334.113281 63.640625 335.136719 62.777344 335.234375 61.613281 Z M 338.125 27.28125 " fill-opacity="1" fill-rule="nonzero"/></g></g></g><g fill="#183b6b" fill-opacity="1"><g transform="translate(65.152402, 250.247765)"><g><path d="M 14.605469 -0.949219 C 19.890625 -1.707031 27.457031 -5.09375 27.976562 -12.503906 C 28.492188 -20.417969 22.632812 -22.667969 17.285156 -24.34375 C 9.835938 -26.65625 8.324219 -29.171875 9.164062 -35.835938 C 9.945312 -41.914062 13.3125 -48.511719 17.46875 -49.109375 C 19.863281 -49.453125 22.273438 -46.203125 21.164062 -36.40625 C 20.992188 -35.089844 20.84375 -31.113281 25.796875 -30.671875 C 26.300781 -30.671875 26.765625 -30.957031 26.90625 -31.480469 C 30.617188 -46.179688 26.140625 -56.324219 16.710938 -53.890625 C 7.601562 -52.726562 2.753906 -45.414062 1.453125 -35.949219 C -0.691406 -20.324219 8.242188 -18.226562 14.300781 -16.582031 C 17.222656 -15.777344 20.855469 -15.507812 20.566406 -11.511719 C 20.320312 -8.238281 17.210938 -6.859375 15.234375 -6.574219 C 11.21875 -6 8.339844 -9.035156 5.800781 -11.691406 C 4.027344 -13.523438 1.609375 -15.332031 -0.613281 -14.292969 L -2.578125 -13.4375 C -3.179688 -13.136719 -3.441406 -12.449219 -3.070312 -11.855469 C 0.640625 -5.054688 5.234375 0.398438 14.605469 -0.949219 Z M 14.605469 -0.949219 "/></g></g></g><g fill="#183b6b" fill-opacity="1"><g transform="translate(95.798129, 245.846014)"><g><path d="M 36.566406 -21.289062 C 36.335938 -21.398438 36.0625 -21.289062 36.042969 -20.925781 C 34.421875 -10.695312 29.398438 -11.125 28.761719 -11.035156 C 26.15625 -10.660156 26.195312 -13.902344 26.472656 -16.460938 C 26.785156 -17.796875 27.015625 -19.199219 27.234375 -20.667969 C 29.148438 -33.886719 23.59375 -43.011719 14.4375 -38.679688 C 11.660156 -37.992188 9.96875 -36.742188 8.851562 -35 C 7.8125 -36.71875 5.921875 -37.886719 3.625 -37.84375 C 3.121094 -37.84375 2.75 -37.429688 2.667969 -36.988281 L -2.097656 8.425781 C -2.496094 12.152344 0.0234375 15.171875 3.976562 15.179688 C 4.480469 15.175781 4.863281 14.835938 4.921875 14.25 L 6.761719 -2.984375 C 8.839844 -1.054688 11.507812 -0.503906 13.902344 -0.847656 C 18.121094 -1.523438 21.058594 -3.601562 23.160156 -6.992188 C 24.519531 -6.039062 26.3125 -5.578125 28.707031 -5.921875 C 33.992188 -6.679688 37.25 -9.519531 38.703125 -17.929688 C 38.914062 -19.46875 38.257812 -20.523438 36.566406 -21.289062 Z M 12.992188 -5.675781 C 8.695312 -5.058594 7.492188 -8.914062 8.101562 -15.691406 L 8.292969 -17.371094 L 8.480469 -19.054688 L 8.410156 -19.042969 L 9.320312 -27.226562 C 9.914062 -31.125 10.886719 -33.851562 14.347656 -34.78125 C 19.925781 -35.511719 20.253906 -28.222656 19.574219 -20.429688 C 18.515625 -8.269531 15.953125 -6.101562 12.992188 -5.675781 Z M 12.992188 -5.675781 "/></g></g></g><g fill="#183b6b" fill-opacity="1"><g transform="translate(131.304914, 240.746054)"><g><path d="M 35.015625 -21.066406 C 34.785156 -21.175781 34.511719 -21.066406 34.484375 -20.773438 C 32.878906 -10.402344 29.761719 -9.09375 27.507812 -8.769531 C 24.6875 -8.363281 24.042969 -10.355469 24.894531 -15.945312 L 27.046875 -30.492188 C 28.199219 -38.496094 26.082031 -40.710938 21.855469 -40.101562 C 21.433594 -40.042969 21.121094 -39.710938 21.039062 -39.265625 L 20.578125 -36.46875 C 19.007812 -38.902344 16.660156 -39.714844 14.71875 -38.71875 C 6.523438 -38.1875 2.160156 -30.515625 0.507812 -19.488281 C -1.726562 -4.5 4.613281 3.582031 14.023438 -2.015625 C 15.5 -2.226562 16.609375 -3.535156 17.550781 -5.46875 C 18.902344 -2.570312 21.722656 -1.96875 25.878906 -2.566406 C 32.855469 -3.570312 35.699219 -9.296875 37.152344 -17.707031 C 37.363281 -19.246094 36.707031 -20.300781 35.015625 -21.066406 Z M 11.53125 -5.324219 C 7.394531 -6.597656 7.109375 -12.597656 8.167969 -19.726562 C 9.570312 -28.988281 12.617188 -33.8125 15.789062 -34.269531 C 19.101562 -34.746094 19.476562 -30.628906 18.414062 -24.003906 L 17.523438 -18.699219 C 17.203125 -16.925781 16.992188 -15.386719 16.839844 -13.925781 C 16.007812 -9.203125 13.796875 -5.074219 11.53125 -5.324219 Z M 11.53125 -5.324219 "/></g></g></g><g fill="#183b6b" fill-opacity="1"><g transform="translate(165.261796, 235.868711)"><g><path d="M 2.398438 3.683594 C 2.679688 3.640625 2.910156 3.25 2.992188 2.804688 L 8.171875 -30.226562 L 12.085938 -31.507812 C 13.113281 -31.871094 13.929688 -31.199219 13.800781 -30.101562 L 11.957031 -17.898438 C 10.324219 -7.234375 13.691406 -0.816406 20.3125 -1.765625 C 27.289062 -2.769531 30.34375 -8.027344 31.585938 -16.90625 C 31.796875 -18.445312 31.140625 -19.503906 29.449219 -20.265625 C 29.21875 -20.378906 28.945312 -20.265625 28.917969 -19.972656 C 27.3125 -9.605469 24.195312 -8.292969 21.941406 -7.96875 C 19.121094 -7.566406 18.617188 -9.578125 19.328125 -15.144531 L 21.007812 -28.976562 C 21.878906 -36.4375 20.304688 -38.875 16.660156 -38.710938 C 13.136719 -38.203125 8.46875 -34.152344 7.644531 -33.890625 C 8.914062 -35.582031 9.511719 -42.933594 5.988281 -42.425781 C 2.886719 -41.980469 1.710938 -39.65625 1.199219 -36.703125 C 0.757812 -34.269531 0.902344 -31.269531 3.089844 -29.066406 L -1.875 -4.546875 C -2.96875 0.859375 -0.539062 3.746094 2.398438 3.683594 Z M 2.398438 3.683594 "/></g></g></g><g fill="#183b6b" fill-opacity="1"><g transform="translate(193.653134, 231.790767)"><g><path d="M 32.199219 -20.660156 C 31.964844 -20.773438 31.695312 -20.660156 31.664062 -20.371094 C 30.0625 -10 26.941406 -8.6875 24.6875 -8.363281 C 20.039062 -7.695312 15.480469 -15.886719 15.464844 -21.496094 C 19.863281 -23.421875 23.234375 -26.492188 24.148438 -31.15625 C 25.171875 -36.046875 22.660156 -38.492188 18.816406 -39.234375 C 18.152344 -39.355469 17.578125 -38.839844 17.527344 -38.1875 C 16.839844 -28.453125 13.359375 -25.148438 9.273438 -23.050781 L 12.628906 -47.765625 C 13.160156 -51.582031 10.289062 -54.550781 6.550781 -54.515625 C 6.050781 -54.515625 5.675781 -54.105469 5.597656 -53.660156 L -0.78125 -6.433594 C -1.320312 -2.6875 1.328125 0.242188 5.296875 0.316406 C 5.796875 0.316406 6.179688 -0.0234375 6.242188 -0.609375 L 8.855469 -19.96875 C 10.949219 -6.894531 15.734375 -1.109375 23.0625 -2.160156 C 30.039062 -3.164062 32.882812 -8.894531 34.335938 -17.300781 C 34.546875 -18.839844 33.890625 -19.898438 32.199219 -20.660156 Z M 32.199219 -20.660156 "/></g></g></g><g fill="#183b6b" fill-opacity="1"><g transform="translate(224.792015, 227.318183)"><g><path d="M 8.828125 -0.117188 C 15.804688 -1.121094 18.578125 -6.839844 20.101562 -15.257812 C 20.324219 -16.726562 19.667969 -17.78125 17.964844 -18.617188 C 17.734375 -18.726562 17.460938 -18.617188 17.441406 -18.253906 C 15.828125 -7.953125 12.710938 -6.644531 10.453125 -6.320312 C 7.636719 -5.914062 6.921875 -7.898438 7.84375 -13.496094 L 12.601562 -44.957031 C 13.671875 -53.023438 11.210938 -55.113281 6.914062 -54.496094 C 6.492188 -54.4375 6.179688 -54.105469 6.101562 -53.660156 L 0.472656 -16.25 C -1.863281 -1.960938 1.007812 1.007812 8.828125 -0.117188 Z M 8.828125 -0.117188 "/></g></g></g><g fill="#183b6b" fill-opacity="1"><g transform="translate(241.7, 224.889632)"><g><path d="M 30.859375 -20.46875 C 30.628906 -20.578125 30.355469 -20.46875 30.335938 -20.105469 C 28.933594 -9.835938 23.347656 -8.171875 18.277344 -7.441406 C 13.695312 -6.785156 9.878906 -7.820312 8.609375 -12.671875 C 9.121094 -12.601562 9.695312 -12.609375 10.347656 -12.5625 C 15.988281 -12.363281 21.78125 -16.074219 24.625 -24.824219 C 27.316406 -33.121094 23.585938 -40.0625 16.582031 -38.769531 C 8.980469 -39.621094 2.21875 -34.621094 0.566406 -21.082031 C -1.953125 -0.582031 11.648438 -0.523438 16.648438 -1.242188 C 26.9375 -2.71875 31.753906 -8.730469 32.996094 -17.109375 C 33.207031 -18.648438 32.550781 -19.707031 30.859375 -20.46875 Z M 13.996094 -34.730469 C 18.496094 -34.441406 19.304688 -31.824219 17.949219 -26.238281 C 16.332031 -20.972656 14.933594 -18.183594 8.171875 -17.714844 C 8.21875 -18.871094 8.332031 -20.109375 8.5 -21.429688 C 9.652344 -29.433594 10.804688 -33.914062 13.996094 -34.730469 Z M 13.996094 -34.730469 "/></g></g></g><g fill="#183b6b" fill-opacity="1"><g transform="translate(271.500329, 220.609309)"><g/></g></g><g fill="#183b6b" fill-opacity="1"><g transform="translate(289.112818, 218.079567)"><g><path d="M 6.351562 -0.335938 C 6.855469 -0.335938 7.238281 -0.679688 7.296875 -1.265625 L 9.066406 -15.972656 C 20.402344 -18.175781 28.121094 -22.015625 29.589844 -34.308594 C 31.082031 -46.460938 26.375 -55.207031 15.382812 -53.628906 C 10.308594 -52.898438 5.820312 -50.601562 1.039062 -49.339844 C 0.34375 -49.167969 -0.078125 -48.601562 0.226562 -48 C 0.960938 -46.378906 2.664062 -45.042969 4.808594 -44.628906 L 0.277344 -7.085938 C -0.144531 -3.503906 2.316406 -0.40625 6.351562 -0.335938 Z M 12.53125 -44.445312 C 12.578125 -45.097656 12.558594 -45.742188 12.316406 -46.425781 C 13.613281 -46.902344 14.914062 -47.375 16.253906 -47.566406 C 20.621094 -48.195312 24.410156 -42.339844 21.960938 -33.863281 C 20.003906 -26.964844 16.671875 -23.609375 9.757812 -21.679688 Z M 12.53125 -44.445312 "/></g></g></g><g fill="#183b6b" fill-opacity="1"><g transform="translate(321.872041, 213.374248)"><g><path d="M 2.398438 3.683594 C 2.679688 3.640625 2.910156 3.25 2.992188 2.804688 L 8.171875 -30.226562 L 12.085938 -31.507812 C 13.113281 -31.871094 13.929688 -31.199219 13.800781 -30.101562 L 11.957031 -17.898438 C 10.324219 -7.234375 13.691406 -0.816406 20.3125 -1.765625 C 27.289062 -2.769531 30.34375 -8.027344 31.585938 -16.90625 C 31.796875 -18.445312 31.140625 -19.503906 29.449219 -20.265625 C 29.21875 -20.378906 28.945312 -20.265625 28.917969 -19.972656 C 27.3125 -9.605469 24.195312 -8.292969 21.941406 -7.96875 C 19.121094 -7.566406 18.617188 -9.578125 19.328125 -15.144531 L 21.007812 -28.976562 C 21.878906 -36.4375 20.304688 -38.875 16.660156 -38.710938 C 13.136719 -38.203125 8.46875 -34.152344 7.644531 -33.890625 C 8.914062 -35.582031 9.511719 -42.933594 5.988281 -42.425781 C 2.886719 -41.980469 1.710938 -39.65625 1.199219 -36.703125 C 0.757812 -34.269531 0.902344 -31.269531 3.089844 -29.066406 L -1.875 -4.546875 C -2.96875 0.859375 -0.539062 3.746094 2.398438 3.683594 Z M 2.398438 3.683594 "/></g></g></g><g fill="#183b6b" fill-opacity="1"><g transform="translate(350.263378, 209.296304)"><g><path d="M 14.164062 -1.027344 C 22.46875 -2.292969 25.824219 -8.960938 27.515625 -20.707031 C 29.429688 -33.925781 23.210938 -43.175781 14.71875 -38.71875 C 6.523438 -38.1875 2.160156 -30.515625 0.507812 -19.488281 C -1.664062 -5.082031 3.777344 2.261719 14.164062 -1.027344 Z M 11.664062 -4.40625 C 7.527344 -5.683594 7.109375 -12.597656 8.167969 -19.726562 C 9.570312 -28.988281 10.757812 -33.761719 13.996094 -34.730469 C 20.207031 -35.550781 21 -27.539062 19.855469 -20.472656 C 17.921875 -8.398438 16.40625 -3.9375 11.664062 -4.40625 Z M 11.664062 -4.40625 "/></g></g></g><g fill="#183b6b" fill-opacity="1"><g transform="translate(381.190911, 204.854077)"><g><path d="M 29.308594 -20.246094 C 29.078125 -20.355469 28.804688 -20.246094 28.777344 -19.953125 C 27.5625 -12.371094 23.117188 -8.28125 19.171875 -6.710938 C 20.417969 -9.046875 21.453125 -12.359375 20.976562 -18.1875 C 20.570312 -22.515625 19.054688 -30.0625 15.082031 -35.175781 C 16.058594 -36.898438 16.46875 -38.539062 16.550781 -39.988281 C 16.6875 -42.523438 15.109375 -43.015625 12.710938 -42.671875 C 10.175781 -42.308594 8.738281 -40.304688 8.195312 -37.566406 C 7.535156 -34.164062 5.242188 -28.582031 -0.121094 -14.867188 C -0.304688 -15.632812 -0.414062 -16.410156 -0.597656 -17.171875 C -0.757812 -17.796875 -1.324219 -18.21875 -1.875 -18.070312 C -4.28125 -17.292969 -6.011719 -15.316406 -5.476562 -11.582031 C -4.382812 -3.972656 2.265625 0.753906 12.835938 -0.765625 C 21.996094 -2.082031 29.429688 -5.378906 31.445312 -16.886719 C 31.65625 -18.425781 31 -19.484375 29.308594 -20.246094 Z M 8.503906 -4.386719 C 5.261719 -3.921875 3.316406 -5.4375 1.976562 -8.265625 L 10.617188 -31.730469 C 16.613281 -21.011719 13.648438 -5.125 8.503906 -4.386719 Z M 8.503906 -4.386719 "/></g></g></g></svg>