<svg xmlns="http://www.w3.org/2000/svg" xmlns:xlink="http://www.w3.org/1999/xlink" width="640" zoomAndPan="magnify" viewBox="0 0 480 479.999983" height="640" preserveAspectRatio="xMidYMid meet" version="1.0"><defs><g/><clipPath id="e7abac6e0a"><path d="M 241 86 L 403 86 L 403 221 L 241 221 Z M 241 86 " clip-rule="nonzero"/></clipPath><clipPath id="3540db3925"><path d="M 285.867188 53.832031 L 439.367188 146.394531 L 394.054688 221.539062 L 240.554688 128.976562 Z M 285.867188 53.832031 " clip-rule="nonzero"/></clipPath><clipPath id="313b274226"><path d="M 285.867188 53.832031 L 439.367188 146.394531 L 394.054688 221.539062 L 240.554688 128.976562 Z M 285.867188 53.832031 " clip-rule="nonzero"/></clipPath></defs><rect x="-48" width="576" fill="#ffffff" y="-47.999998" height="575.99998" fill-opacity="1"/><rect x="-48" width="576" fill="#ffffff" y="-47.999998" height="575.99998" fill-opacity="1"/><rect x="-48" width="576" fill="#fefefe" y="-47.999998" height="575.99998" fill-opacity="1"/><g fill="#009ce6" fill-opacity="1"><g transform="translate(83.028423, 349.322665)"><g><path d="M 2.511719 -0.355469 L 5.070312 -0.71875 L 7.820312 -14.367188 L 7.863281 -14.375 L 10.136719 -1.4375 L 12.671875 -1.796875 L 16.097656 -17.859375 L 14.214844 -17.59375 L 11.445312 -3.589844 L 11.402344 -3.582031 L 9.035156 -16.859375 L 6.652344 -16.523438 L 3.84375 -2.511719 L 3.800781 -2.503906 L 1.453125 -15.785156 L -0.386719 -15.523438 Z M 2.511719 -0.355469 "/></g></g></g><g fill="#009ce6" fill-opacity="1"><g transform="translate(101.029033, 346.771809)"><g><path d="M 0.433594 -0.0625 L 8.449219 -1.199219 L 8.480469 -2.835938 L 2.222656 -1.949219 L 2.296875 -7.640625 L 7.496094 -8.378906 L 7.523438 -9.90625 L 2.324219 -9.167969 L 2.417969 -14.285156 L 8.484375 -15.144531 L 8.492188 -16.78125 L 0.695312 -15.679688 Z M 0.433594 -0.0625 "/></g></g></g><g fill="#009ce6" fill-opacity="1"><g transform="translate(111.968156, 345.221633)"><g><path d="M 0.148438 -9.390625 L 0.996094 -9.511719 L 1.085938 -15.734375 L 0.285156 -15.621094 Z M 0.148438 -9.390625 "/></g></g></g><g fill="#009ce6" fill-opacity="1"><g transform="translate(115.629204, 344.702829)"><g><path d="M 0.433594 -0.0625 L 7.429688 -1.054688 L 7.464844 -2.691406 L 2.285156 -1.960938 L 2.492188 -15.933594 L 0.695312 -15.679688 Z M 0.433594 -0.0625 "/></g></g></g><g fill="#009ce6" fill-opacity="1"><g transform="translate(125.225342, 343.342966)"><g><path d="M 0.433594 -0.0625 L 7.429688 -1.054688 L 7.464844 -2.691406 L 2.285156 -1.960938 L 2.492188 -15.933594 L 0.695312 -15.679688 Z M 0.433594 -0.0625 "/></g></g></g><g fill="#009ce6" fill-opacity="1"><g transform="translate(134.821482, 341.983103)"><g/></g></g><g fill="#009ce6" fill-opacity="1"><g transform="translate(139.60889, 341.304682)"><g><path d="M 0.433594 -0.0625 L 2.230469 -0.316406 L 2.476562 -13.078125 L 2.519531 -13.085938 L 6.390625 -0.90625 L 8.277344 -1.171875 L 12.589844 -14.535156 L 12.636719 -14.519531 L 12.390625 -1.757812 L 14.191406 -2.011719 L 14.453125 -17.628906 L 11.808594 -17.253906 L 7.339844 -3.25 L 7.296875 -3.242188 L 3.273438 -16.042969 L 0.695312 -15.679688 Z M 0.433594 -0.0625 "/></g></g></g><g fill="#009ce6" fill-opacity="1"><g transform="translate(157.046314, 338.833636)"><g><path d="M -0.671875 0.09375 L 1.191406 -0.167969 L 2.296875 -4.058594 L 7.929688 -4.859375 L 8.925781 -1.265625 L 10.703125 -1.515625 L 6.4375 -16.492188 L 4.074219 -16.15625 Z M 2.746094 -5.738281 L 5.277344 -14.691406 L 5.320312 -14.699219 L 7.53125 -6.414062 Z M 2.746094 -5.738281 "/></g></g></g><g fill="#009ce6" fill-opacity="1"><g transform="translate(169.934932, 337.007198)"><g><path d="M 0.433594 -0.0625 L 2.230469 -0.316406 L 2.355469 -5.992188 L 3.9375 -8.246094 L 7.863281 -1.113281 L 9.855469 -1.398438 L 5.03125 -9.863281 L 9.945312 -16.988281 L 7.734375 -16.675781 L 2.378906 -8.777344 L 2.359375 -8.777344 L 2.492188 -15.933594 L 0.695312 -15.679688 Z M 0.433594 -0.0625 "/></g></g></g><g fill="#009ce6" fill-opacity="1"><g transform="translate(181.978766, 335.300474)"><g><path d="M 0.433594 -0.0625 L 8.449219 -1.199219 L 8.480469 -2.835938 L 2.222656 -1.949219 L 2.296875 -7.640625 L 7.496094 -8.378906 L 7.523438 -9.90625 L 2.324219 -9.167969 L 2.417969 -14.285156 L 8.484375 -15.144531 L 8.492188 -16.78125 L 0.695312 -15.679688 Z M 0.433594 -0.0625 "/></g></g></g><g fill="#009ce6" fill-opacity="1"><g transform="translate(192.917892, 333.750298)"><g/></g></g><g fill="#009ce6" fill-opacity="1"><g transform="translate(197.705299, 333.071877)"><g><path d="M 3.617188 -0.511719 L 5.4375 -0.769531 L 5.542969 -6.574219 L 9.96875 -16.992188 L 7.972656 -16.710938 L 4.648438 -8.527344 L 4.605469 -8.519531 L 1.496094 -15.792969 L -0.367188 -15.527344 L 3.746094 -6.320312 Z M 3.617188 -0.511719 "/></g></g></g><g fill="#009ce6" fill-opacity="1"><g transform="translate(209.554194, 331.392778)"><g><path d="M 6.316406 -0.496094 C 11.039062 -1.167969 13.296875 -6.4375 12.574219 -11.550781 C 12.039062 -15.320312 9.738281 -17.355469 6.402344 -16.882812 C 1.636719 -16.210938 -0.574219 -10.921875 0.144531 -5.855469 C 0.679688 -2.0625 2.980469 -0.0234375 6.316406 -0.496094 Z M 6.152344 -2.109375 C 3.878906 -1.789062 2.335938 -3.3125 1.9375 -6.128906 C 1.375 -10.09375 2.882812 -14.75 6.542969 -15.269531 C 8.816406 -15.589844 10.382812 -14.066406 10.785156 -11.230469 C 11.34375 -7.285156 9.835938 -2.632812 6.152344 -2.109375 Z M 6.152344 -2.109375 "/></g></g></g><g fill="#009ce6" fill-opacity="1"><g transform="translate(224.825519, 329.228688)"><g><path d="M 5.191406 -0.335938 C 8.265625 -0.773438 9.976562 -2.738281 10.042969 -5.84375 L 10.226562 -17.027344 L 8.429688 -16.773438 L 8.25 -5.722656 C 8.199219 -3.570312 7.0625 -2.238281 5.027344 -1.949219 C 3.054688 -1.671875 2.097656 -2.660156 2.117188 -4.71875 L 2.277344 -15.902344 L 0.480469 -15.648438 L 0.28125 -4.570312 C 0.210938 -1.488281 1.898438 0.128906 5.191406 -0.335938 Z M 5.191406 -0.335938 "/></g></g></g><g fill="#009ce6" fill-opacity="1"><g transform="translate(237.82244, 327.386903)"><g><path d="M 9.132812 -0.894531 C 9.890625 -1.003906 10.640625 -1.484375 11.171875 -2.402344 L 10.214844 -3.390625 C 9.902344 -2.796875 9.609375 -2.511719 9.308594 -2.46875 C 8.980469 -2.421875 8.875 -2.714844 8.777344 -3.234375 L 8.125 -5.992188 C 7.960938 -6.828125 7.53125 -7.519531 6.867188 -7.824219 L 6.867188 -7.84375 C 9.347656 -8.726562 10.574219 -10.691406 10.222656 -13.160156 C 9.882812 -15.566406 8.253906 -16.75 5.589844 -16.371094 L 0.695312 -15.679688 L 0.433594 -0.0625 L 2.230469 -0.316406 L 2.339844 -7.050781 L 4.351562 -7.335938 C 5.347656 -7.476562 6.082031 -6.828125 6.355469 -5.675781 L 7.140625 -2.46875 C 7.375 -1.441406 7.960938 -0.730469 9.132812 -0.894531 Z M 2.375 -8.667969 L 2.460938 -14.292969 L 5.515625 -14.726562 C 7.226562 -14.96875 8.25 -14.296875 8.445312 -12.929688 C 8.730469 -10.894531 7.574219 -9.40625 5.339844 -9.089844 Z M 2.375 -8.667969 "/></g></g></g><g fill="#009ce6" fill-opacity="1"><g transform="translate(250.906006, 325.532839)"><g/></g></g><g fill="#009ce6" fill-opacity="1"><g transform="translate(255.693414, 324.854418)"><g><path d="M 0.433594 -0.0625 L 2.230469 -0.316406 L 2.363281 -7.648438 L 8.167969 -8.472656 L 8.058594 -1.140625 L 9.855469 -1.398438 L 10.117188 -17.011719 L 8.300781 -16.753906 L 8.203125 -10.089844 L 2.398438 -9.269531 L 2.492188 -15.933594 L 0.695312 -15.679688 Z M 0.433594 -0.0625 "/></g></g></g><g fill="#009ce6" fill-opacity="1"><g transform="translate(268.798639, 322.997285)"><g><path d="M 6.316406 -0.496094 C 11.039062 -1.167969 13.296875 -6.4375 12.574219 -11.550781 C 12.039062 -15.320312 9.738281 -17.355469 6.402344 -16.882812 C 1.636719 -16.210938 -0.574219 -10.921875 0.144531 -5.855469 C 0.679688 -2.0625 2.980469 -0.0234375 6.316406 -0.496094 Z M 6.152344 -2.109375 C 3.878906 -1.789062 2.335938 -3.3125 1.9375 -6.128906 C 1.375 -10.09375 2.882812 -14.75 6.542969 -15.269531 C 8.816406 -15.589844 10.382812 -14.066406 10.785156 -11.230469 C 11.34375 -7.285156 9.835938 -2.632812 6.152344 -2.109375 Z M 6.152344 -2.109375 "/></g></g></g><g fill="#009ce6" fill-opacity="1"><g transform="translate(284.069964, 320.833195)"><g><path d="M 0.433594 -0.0625 L 2.230469 -0.316406 L 2.476562 -13.078125 L 2.519531 -13.085938 L 6.390625 -0.90625 L 8.277344 -1.171875 L 12.589844 -14.535156 L 12.636719 -14.519531 L 12.390625 -1.757812 L 14.191406 -2.011719 L 14.453125 -17.628906 L 11.808594 -17.253906 L 7.339844 -3.25 L 7.296875 -3.242188 L 3.273438 -16.042969 L 0.695312 -15.679688 Z M 0.433594 -0.0625 "/></g></g></g><g fill="#009ce6" fill-opacity="1"><g transform="translate(301.507388, 318.362149)"><g><path d="M 0.433594 -0.0625 L 8.449219 -1.199219 L 8.480469 -2.835938 L 2.222656 -1.949219 L 2.296875 -7.640625 L 7.496094 -8.378906 L 7.523438 -9.90625 L 2.324219 -9.167969 L 2.417969 -14.285156 L 8.484375 -15.144531 L 8.492188 -16.78125 L 0.695312 -15.679688 Z M 0.433594 -0.0625 "/></g></g></g><g fill="#009ce6" fill-opacity="1"><g transform="translate(312.446514, 316.811973)"><g/></g></g><g fill="#009ce6" fill-opacity="1"><g transform="translate(317.233921, 316.133552)"><g><path d="M 5.058594 -0.320312 C 8.222656 -0.765625 10.199219 -2.726562 9.773438 -5.738281 C 9.53125 -7.429688 8.304688 -8.601562 6.164062 -9.203125 L 4.527344 -9.679688 C 3.097656 -10.097656 2.417969 -10.707031 2.261719 -11.789062 C 2.042969 -13.328125 2.925781 -14.757812 4.613281 -14.996094 C 6.390625 -15.246094 7.367188 -13.972656 7.34375 -11.957031 L 9.082031 -12.492188 C 9.113281 -15.214844 7.3125 -17.011719 4.605469 -16.628906 C 1.832031 -16.238281 0.0820312 -14.066406 0.460938 -11.402344 C 0.699219 -9.734375 1.78125 -8.628906 3.625 -8.09375 L 5.195312 -7.628906 C 6.945312 -7.128906 7.796875 -6.410156 7.964844 -5.238281 C 8.207031 -3.527344 7.042969 -2.234375 5.113281 -1.960938 C 2.882812 -1.644531 1.425781 -3.03125 1.449219 -5.53125 L -0.335938 -5.011719 C -0.191406 -1.828125 2.070312 0.105469 5.058594 -0.320312 Z M 5.058594 -0.320312 "/></g></g></g><g fill="#009ce6" fill-opacity="1"><g transform="translate(329.36441, 314.414548)"><g><path d="M 0.433594 -0.0625 L 2.1875 -0.308594 L 2.304688 -6.648438 L 5.316406 -7.074219 C 8.71875 -7.554688 10.40625 -9.828125 9.949219 -13.054688 C 9.605469 -15.480469 7.953125 -16.707031 5.351562 -16.339844 L 0.695312 -15.679688 Z M 2.316406 -8.285156 L 2.417969 -14.285156 L 5.191406 -14.679688 C 6.902344 -14.921875 7.957031 -14.164062 8.167969 -12.691406 C 8.472656 -10.546875 7.320312 -8.992188 5.003906 -8.664062 Z M 2.316406 -8.285156 "/></g></g></g><g fill="#009ce6" fill-opacity="1"><g transform="translate(341.559886, 312.686335)"><g><path d="M -0.671875 0.09375 L 1.191406 -0.167969 L 2.296875 -4.058594 L 7.929688 -4.859375 L 8.925781 -1.265625 L 10.703125 -1.515625 L 6.4375 -16.492188 L 4.074219 -16.15625 Z M 2.746094 -5.738281 L 5.277344 -14.691406 L 5.320312 -14.699219 L 7.53125 -6.414062 Z M 2.746094 -5.738281 "/></g></g></g><g fill="#009ce6" fill-opacity="1"><g transform="translate(354.448503, 310.859897)"><g><path d="M 9.132812 -0.894531 C 9.890625 -1.003906 10.640625 -1.484375 11.171875 -2.402344 L 10.214844 -3.390625 C 9.902344 -2.796875 9.609375 -2.511719 9.308594 -2.46875 C 8.980469 -2.421875 8.875 -2.714844 8.777344 -3.234375 L 8.125 -5.992188 C 7.960938 -6.828125 7.53125 -7.519531 6.867188 -7.824219 L 6.867188 -7.84375 C 9.347656 -8.726562 10.574219 -10.691406 10.222656 -13.160156 C 9.882812 -15.566406 8.253906 -16.75 5.589844 -16.371094 L 0.695312 -15.679688 L 0.433594 -0.0625 L 2.230469 -0.316406 L 2.339844 -7.050781 L 4.351562 -7.335938 C 5.347656 -7.476562 6.082031 -6.828125 6.355469 -5.675781 L 7.140625 -2.46875 C 7.375 -1.441406 7.960938 -0.730469 9.132812 -0.894531 Z M 2.375 -8.667969 L 2.460938 -14.292969 L 5.515625 -14.726562 C 7.226562 -14.96875 8.25 -14.296875 8.445312 -12.929688 C 8.730469 -10.894531 7.574219 -9.40625 5.339844 -9.089844 Z M 2.375 -8.667969 "/></g></g></g><g fill="#009ce6" fill-opacity="1"><g transform="translate(367.532079, 309.005832)"><g><path d="M 0.433594 -0.0625 L 2.230469 -0.316406 L 2.355469 -5.992188 L 3.9375 -8.246094 L 7.863281 -1.113281 L 9.855469 -1.398438 L 5.03125 -9.863281 L 9.945312 -16.988281 L 7.734375 -16.675781 L 2.378906 -8.777344 L 2.359375 -8.777344 L 2.492188 -15.933594 L 0.695312 -15.679688 Z M 0.433594 -0.0625 "/></g></g></g><g fill="#009ce6" fill-opacity="1"><g transform="translate(379.575913, 307.299108)"><g><path d="M 0.433594 -0.0625 L 7.429688 -1.054688 L 7.464844 -2.691406 L 2.285156 -1.960938 L 2.492188 -15.933594 L 0.695312 -15.679688 Z M 0.433594 -0.0625 "/></g></g></g><g fill="#009ce6" fill-opacity="1"><g transform="translate(389.172054, 305.939245)"><g><path d="M 0.433594 -0.0625 L 8.449219 -1.199219 L 8.480469 -2.835938 L 2.222656 -1.949219 L 2.296875 -7.640625 L 7.496094 -8.378906 L 7.523438 -9.90625 L 2.324219 -9.167969 L 2.417969 -14.285156 L 8.484375 -15.144531 L 8.492188 -16.78125 L 0.695312 -15.679688 Z M 0.433594 -0.0625 "/></g></g></g><g fill="#183b6b" fill-opacity="1"><g transform="translate(101.666978, 246.081808)"><g><path d="M 11.148438 0.046875 C 12.074219 0.03125 12.695312 -0.523438 12.792969 -1.464844 L 16.285156 -29.238281 L 32.332031 -31.511719 L 30.476562 -16.738281 C 29.738281 -10.480469 34.25 -5.667969 40.265625 -5.820312 C 41.078125 -5.820312 41.679688 -6.488281 41.8125 -7.203125 L 50.488281 -77.84375 C 51.242188 -83.988281 46.714844 -88.917969 40.699219 -88.761719 C 39.886719 -88.761719 39.285156 -88.097656 39.15625 -87.382812 L 33.675781 -42.496094 L 17.746094 -40.238281 L 21.730469 -71.910156 C 22.484375 -78.054688 17.957031 -82.984375 11.941406 -82.828125 C 11.128906 -82.828125 10.527344 -82.164062 10.394531 -81.449219 L 5 -38.433594 L 1.132812 -37.882812 C 0.109375 -37.738281 -0.578125 -36.832031 -0.316406 -35.820312 C 0.3125 -33.007812 1.398438 -31.074219 3.820312 -29.558594 L 1.476562 -10.886719 C 0.71875 -4.746094 5.085938 -0.140625 11.148438 0.046875 Z M 11.148438 0.046875 "/></g></g></g><g fill="#183b6b" fill-opacity="1"><g transform="translate(153.781634, 238.696672)"><g><path d="M 22.871094 -1.617188 C 36.28125 -3.632812 41.722656 -14.386719 44.488281 -33.351562 C 47.617188 -54.6875 37.605469 -69.632812 23.882812 -62.464844 C 10.648438 -61.636719 3.582031 -49.257812 0.878906 -31.464844 C -2.671875 -8.210938 6.089844 3.664062 22.871094 -1.617188 Z M 18.84375 -7.082031 C 12.167969 -9.152344 11.515625 -20.320312 13.25 -31.824219 C 15.542969 -46.773438 17.46875 -54.476562 22.703125 -56.03125 C 32.734375 -57.335938 33.988281 -44.398438 32.121094 -32.988281 C 28.960938 -13.507812 26.5 -6.308594 18.84375 -7.082031 Z M 18.84375 -7.082031 "/></g></g></g><g fill="#183b6b" fill-opacity="1"><g transform="translate(203.734326, 231.617907)"><g><path d="M 66.710938 -7.597656 C 77.976562 -9.191406 82.585938 -18.4375 84.957031 -32.003906 C 85.300781 -34.492188 84.246094 -36.199219 81.519531 -37.4375 C 81.144531 -37.617188 80.707031 -37.4375 80.65625 -36.964844 C 78.039062 -20.230469 72.996094 -18.121094 69.355469 -17.605469 C 64.804688 -16.960938 64.011719 -20.097656 65.160156 -29.199219 L 67.292969 -46.910156 C 69.03125 -61.667969 66.695312 -67.488281 60.8125 -67.234375 C 52.316406 -69.050781 43.925781 -66.003906 39.996094 -54.417969 C 39.335938 -60.710938 37.910156 -65.035156 33.40625 -64.046875 C 26.679688 -64.835938 17.589844 -62.621094 14.003906 -53.523438 C 12.839844 -57.652344 10.8125 -61.3125 6.359375 -60.796875 C 5.5625 -60.683594 4.960938 -60.015625 4.828125 -59.300781 L -2.378906 -10.226562 C -3.179688 -4.425781 0.761719 0.472656 7.054688 0.625 C 8.109375 0.707031 8.824219 0.0273438 8.925781 -0.917969 C 9.382812 -5.855469 9.796875 -10.324219 10.253906 -14.453125 C 13.929688 -44.226562 19.710938 -53.402344 28.148438 -55.292969 C 29.496094 -55.601562 30.453125 -54.574219 30.308594 -53.164062 L 24.378906 -14.714844 C 23.742188 -10.210938 25.671875 -6.421875 29.230469 -5.070312 L 32.917969 -3.621094 C 34.152344 -3.097656 35.320312 -3.84375 35.484375 -5.144531 L 37.320312 -18.40625 C 41.335938 -47.414062 46.660156 -56.523438 54.660156 -59.050781 C 55.992188 -59.472656 57.097656 -58.234375 56.835938 -56.804688 L 53.265625 -33.664062 C 49.8125 -11.355469 54.082031 -5.804688 66.710938 -7.597656 Z M 66.710938 -7.597656 "/></g></g></g><g fill="#183b6b" fill-opacity="1"><g transform="translate(283.499325, 220.314459)"><g><path d="M 49.886719 -32.953125 C 49.511719 -33.132812 49.074219 -32.953125 49.039062 -32.371094 C 46.746094 -15.792969 37.722656 -13.121094 29.527344 -11.960938 C 22.132812 -10.914062 15.976562 -12.59375 13.9375 -20.429688 C 14.765625 -20.316406 15.691406 -20.332031 16.746094 -20.25 C 25.847656 -19.914062 35.21875 -25.882812 39.832031 -40.003906 C 44.203125 -53.390625 38.203125 -64.613281 26.886719 -62.542969 C 14.617188 -63.9375 3.6875 -55.890625 0.980469 -34.03125 C -3.152344 -0.945312 18.804688 -0.808594 26.886719 -1.953125 C 43.5 -4.308594 51.292969 -14 53.324219 -27.519531 C 53.667969 -30.007812 52.613281 -31.714844 49.886719 -32.953125 Z M 22.703125 -56.03125 C 29.96875 -55.550781 31.261719 -51.324219 29.058594 -42.304688 C 26.433594 -33.808594 24.167969 -29.308594 13.246094 -28.574219 C 13.328125 -30.441406 13.511719 -32.441406 13.789062 -34.570312 C 15.671875 -47.488281 17.550781 -54.71875 22.703125 -56.03125 Z M 22.703125 -56.03125 "/></g></g></g><g fill="#183b6b" fill-opacity="1"><g transform="translate(331.622879, 213.4949)"><g/></g></g><g clip-path="url(#e7abac6e0a)"><g clip-path="url(#3540db3925)"><g clip-path="url(#313b274226)"><path fill="#009ce6" d="M 394.941406 219.976562 C 394.421875 220.835938 393.304688 221.109375 392.441406 220.589844 L 347.289062 193.363281 C 346.429688 192.84375 346.148438 191.726562 346.667969 190.867188 C 347.1875 190.007812 348.304688 189.734375 349.167969 190.253906 L 394.316406 217.476562 C 395.179688 217.996094 395.457031 219.117188 394.941406 219.976562 Z M 387.890625 187.648438 C 388.882812 187.820312 389.824219 187.160156 389.996094 186.171875 C 390.164062 185.183594 389.5 184.242188 388.507812 184.066406 L 353.523438 177.957031 C 352.53125 177.785156 351.589844 178.449219 351.417969 179.4375 C 351.289062 180.199219 351.652344 180.929688 352.277344 181.304688 C 352.464844 181.417969 352.675781 181.5 352.902344 181.542969 Z M 402.386719 156.914062 C 402.183594 155.929688 401.222656 155.289062 400.238281 155.488281 L 353.121094 164.914062 C 352.136719 165.109375 351.5 166.066406 351.699219 167.050781 C 351.804688 167.574219 352.121094 167.996094 352.542969 168.25 C 352.921875 168.480469 353.378906 168.570312 353.84375 168.476562 L 400.960938 159.054688 C 401.949219 158.855469 402.585938 157.898438 402.386719 156.914062 Z M 369.863281 141.089844 C 369.320312 140.242188 368.195312 139.996094 367.347656 140.535156 L 348.011719 152.886719 C 347.167969 153.425781 346.921875 154.550781 347.464844 155.398438 C 347.621094 155.640625 347.824219 155.835938 348.054688 155.976562 C 348.632812 156.320312 349.375 156.335938 349.980469 155.953125 L 369.316406 143.601562 C 370.160156 143.0625 370.40625 141.9375 369.863281 141.089844 Z M 362.609375 100.109375 C 361.75 99.589844 360.628906 99.863281 360.113281 100.722656 L 335.738281 141.144531 C 335.21875 142.003906 335.5 143.121094 336.359375 143.640625 C 337.222656 144.160156 338.339844 143.886719 338.859375 143.027344 L 363.230469 102.605469 C 363.75 101.746094 363.472656 100.628906 362.609375 100.109375 Z M 289.160156 154.070312 L 244.007812 126.84375 C 243.148438 126.324219 242.027344 126.597656 241.511719 127.457031 C 240.992188 128.316406 241.269531 129.433594 242.132812 129.953125 L 287.28125 157.179688 C 288.144531 157.699219 289.261719 157.425781 289.78125 156.566406 C 290.300781 155.707031 290.019531 154.589844 289.160156 154.070312 Z M 298 144.476562 L 281.476562 123.117188 C 280.863281 122.324219 279.71875 122.175781 278.921875 122.789062 C 278.128906 123.402344 277.980469 124.542969 278.597656 125.335938 L 295.121094 146.695312 C 295.261719 146.878906 295.433594 147.03125 295.621094 147.144531 C 296.246094 147.519531 297.0625 147.5 297.671875 147.027344 C 298.46875 146.414062 298.613281 145.273438 298 144.476562 Z M 294.746094 88.214844 C 294.460938 87.25 293.449219 86.699219 292.484375 86.980469 C 291.519531 87.265625 290.972656 88.273438 291.257812 89.238281 L 306.234375 139.769531 C 306.367188 140.222656 306.664062 140.585938 307.039062 140.8125 C 307.464844 141.066406 307.988281 141.152344 308.496094 141.003906 C 309.460938 140.71875 310.011719 139.710938 309.726562 138.746094 Z M 325.199219 108.09375 C 325.28125 107.09375 324.539062 106.214844 323.535156 106.128906 C 322.535156 106.042969 321.652344 106.785156 321.570312 107.785156 L 319.117188 137.34375 C 319.058594 138.054688 319.417969 138.707031 319.992188 139.054688 C 320.226562 139.195312 320.492188 139.285156 320.78125 139.308594 C 321.78125 139.394531 322.660156 138.652344 322.746094 137.652344 Z M 325.199219 108.09375 " fill-opacity="1" fill-rule="nonzero"/></g></g></g><g fill="#183b6b" fill-opacity="1"><g transform="translate(70.325424, 309.832803)"><g><path d="M 13.410156 -0.871094 C 18.261719 -1.566406 25.210938 -4.679688 25.6875 -11.480469 C 26.164062 -18.746094 20.78125 -20.8125 15.871094 -22.351562 C 9.03125 -24.472656 7.640625 -26.785156 8.414062 -32.902344 C 9.128906 -38.488281 12.222656 -44.542969 16.039062 -45.089844 C 18.238281 -45.40625 20.449219 -42.421875 19.429688 -33.429688 C 19.273438 -32.21875 19.140625 -28.566406 23.6875 -28.164062 C 24.148438 -28.164062 24.574219 -28.421875 24.703125 -28.902344 C 28.113281 -42.402344 24.003906 -51.714844 15.34375 -49.480469 C 6.980469 -48.414062 2.527344 -41.699219 1.332031 -33.007812 C -0.632812 -18.660156 7.566406 -16.734375 13.132812 -15.222656 C 15.8125 -14.488281 19.152344 -14.238281 18.886719 -10.570312 C 18.65625 -7.566406 15.800781 -6.296875 13.988281 -6.039062 C 10.300781 -5.507812 7.65625 -8.296875 5.324219 -10.734375 C 3.695312 -12.417969 1.476562 -14.078125 -0.566406 -13.125 L -2.367188 -12.339844 C -2.921875 -12.058594 -3.160156 -11.429688 -2.816406 -10.886719 C 0.589844 -4.640625 4.808594 0.367188 13.410156 -0.871094 Z M 13.410156 -0.871094 "/></g></g></g><g fill="#183b6b" fill-opacity="1"><g transform="translate(98.463827, 305.791188)"><g><path d="M 33.574219 -19.546875 C 33.363281 -19.648438 33.113281 -19.546875 33.09375 -19.214844 C 31.605469 -9.820312 26.992188 -10.214844 26.410156 -10.132812 C 24.015625 -9.789062 24.050781 -12.765625 24.308594 -15.113281 C 24.59375 -16.34375 24.804688 -17.628906 25.007812 -18.976562 C 26.761719 -31.113281 21.664062 -39.496094 13.253906 -35.511719 C 10.703125 -34.882812 9.152344 -33.734375 8.128906 -32.136719 C 7.175781 -33.714844 5.4375 -34.785156 3.328125 -34.746094 C 2.867188 -34.746094 2.523438 -34.367188 2.453125 -33.960938 L -1.925781 7.738281 C -2.292969 11.160156 0.0195312 13.929688 3.652344 13.9375 C 4.113281 13.9375 4.464844 13.621094 4.519531 13.085938 L 6.210938 -2.742188 C 8.113281 -0.96875 10.566406 -0.460938 12.765625 -0.777344 C 16.636719 -1.398438 19.335938 -3.304688 21.265625 -6.421875 C 22.511719 -5.542969 24.15625 -5.121094 26.359375 -5.4375 C 31.210938 -6.132812 34.203125 -8.742188 35.535156 -16.460938 C 35.730469 -17.875 35.128906 -18.847656 33.574219 -19.546875 Z M 11.929688 -5.214844 C 7.984375 -4.644531 6.878906 -8.183594 7.4375 -14.40625 L 7.789062 -17.492188 L 7.722656 -17.484375 L 8.558594 -25 C 9.101562 -28.578125 9.996094 -31.082031 13.175781 -31.9375 C 18.296875 -32.605469 18.597656 -25.914062 17.972656 -18.757812 C 17 -7.59375 14.644531 -5.601562 11.929688 -5.214844 Z M 11.929688 -5.214844 "/></g></g></g><g fill="#183b6b" fill-opacity="1"><g transform="translate(131.065575, 301.108489)"><g><path d="M 32.152344 -19.34375 C 31.9375 -19.445312 31.691406 -19.34375 31.660156 -19.074219 C 30.191406 -9.554688 27.324219 -8.347656 25.253906 -8.050781 C 22.667969 -7.679688 22.074219 -9.507812 22.855469 -14.640625 L 24.832031 -28 C 25.890625 -35.347656 23.949219 -37.378906 20.066406 -36.820312 C 19.679688 -36.765625 19.390625 -36.460938 19.320312 -36.054688 L 18.894531 -33.484375 C 17.453125 -35.71875 15.296875 -36.46875 13.515625 -35.550781 C 5.992188 -35.0625 1.984375 -28.019531 0.46875 -17.894531 C -1.582031 -4.128906 4.234375 3.289062 12.875 -1.847656 C 14.234375 -2.042969 15.25 -3.246094 16.117188 -5.023438 C 17.355469 -2.359375 19.945312 -1.808594 23.761719 -2.355469 C 30.167969 -3.277344 32.777344 -8.539062 34.113281 -16.257812 C 34.308594 -17.671875 33.707031 -18.640625 32.152344 -19.34375 Z M 10.589844 -4.886719 C 6.789062 -6.058594 6.527344 -11.566406 7.5 -18.113281 C 8.789062 -26.617188 11.585938 -31.046875 14.496094 -31.464844 C 17.539062 -31.902344 17.882812 -28.121094 16.90625 -22.039062 L 16.089844 -17.167969 C 15.792969 -15.539062 15.601562 -14.125 15.464844 -12.785156 C 14.699219 -8.449219 12.667969 -4.660156 10.589844 -4.886719 Z M 10.589844 -4.886719 "/></g></g></g><g fill="#183b6b" fill-opacity="1"><g transform="translate(162.244227, 296.630193)"><g><path d="M 2.203125 3.382812 C 2.460938 3.34375 2.671875 2.984375 2.746094 2.578125 L 7.503906 -27.753906 L 11.097656 -28.929688 C 12.039062 -29.265625 12.789062 -28.644531 12.671875 -27.636719 L 10.976562 -16.433594 C 9.476562 -6.644531 12.570312 -0.75 18.652344 -1.621094 C 25.054688 -2.542969 27.863281 -7.371094 29.003906 -15.523438 C 29.195312 -16.9375 28.59375 -17.90625 27.039062 -18.609375 C 26.828125 -18.710938 26.578125 -18.609375 26.550781 -18.339844 C 25.078125 -8.820312 22.214844 -7.613281 20.144531 -7.316406 C 17.558594 -6.945312 17.09375 -8.792969 17.746094 -13.90625 L 19.289062 -26.609375 C 20.085938 -33.457031 18.644531 -35.691406 15.296875 -35.542969 C 12.0625 -35.078125 7.777344 -31.359375 7.019531 -31.117188 C 8.183594 -32.671875 8.734375 -39.417969 5.496094 -38.957031 C 2.652344 -38.546875 1.570312 -36.410156 1.101562 -33.703125 C 0.695312 -31.464844 0.828125 -28.710938 2.835938 -26.6875 L -1.722656 -4.175781 C -2.726562 0.789062 -0.496094 3.4375 2.203125 3.382812 Z M 2.203125 3.382812 "/></g></g></g><g fill="#183b6b" fill-opacity="1"><g transform="translate(188.312687, 292.885892)"><g><path d="M 29.5625 -18.972656 C 29.351562 -19.074219 29.101562 -18.972656 29.074219 -18.703125 C 27.601562 -9.179688 24.738281 -7.976562 22.667969 -7.679688 C 18.398438 -7.066406 14.214844 -14.585938 14.199219 -19.734375 C 18.238281 -21.503906 21.332031 -24.324219 22.171875 -28.605469 C 23.109375 -33.097656 20.808594 -35.34375 17.277344 -36.023438 C 16.664062 -36.136719 16.140625 -35.664062 16.09375 -35.0625 C 15.460938 -26.125 12.265625 -23.089844 8.515625 -21.164062 L 11.59375 -43.859375 C 12.082031 -47.363281 9.445312 -50.085938 6.015625 -50.058594 C 5.554688 -50.054688 5.210938 -49.675781 5.140625 -49.269531 L -0.714844 -5.90625 C -1.210938 -2.46875 1.21875 0.222656 4.863281 0.292969 C 5.324219 0.292969 5.675781 -0.0234375 5.730469 -0.558594 L 8.128906 -18.335938 C 10.050781 -6.328125 14.445312 -1.019531 21.175781 -1.984375 C 27.578125 -2.90625 30.191406 -8.167969 31.527344 -15.886719 C 31.71875 -17.300781 31.117188 -18.269531 29.5625 -18.972656 Z M 29.5625 -18.972656 "/></g></g></g><g fill="#183b6b" fill-opacity="1"><g transform="translate(216.903897, 288.779239)"><g><path d="M 8.105469 -0.109375 C 14.511719 -1.027344 17.058594 -6.28125 18.457031 -14.007812 C 18.660156 -15.359375 18.058594 -16.328125 16.496094 -17.09375 C 16.28125 -17.195312 16.035156 -17.09375 16.015625 -16.761719 C 14.535156 -7.304688 11.667969 -6.101562 9.597656 -5.804688 C 7.011719 -5.429688 6.355469 -7.25 7.199219 -12.390625 L 11.570312 -41.28125 C 12.550781 -48.683594 10.296875 -50.605469 6.347656 -50.039062 C 5.960938 -49.984375 5.675781 -49.675781 5.601562 -49.269531 L 0.433594 -14.917969 C -1.710938 -1.800781 0.925781 0.921875 8.105469 -0.109375 Z M 8.105469 -0.109375 "/></g></g></g><g fill="#183b6b" fill-opacity="1"><g transform="translate(232.428531, 286.549383)"><g><path d="M 28.335938 -18.792969 C 28.121094 -18.894531 27.871094 -18.792969 27.855469 -18.460938 C 26.566406 -9.03125 21.4375 -7.503906 16.78125 -6.835938 C 12.574219 -6.230469 9.070312 -7.179688 7.902344 -11.632812 C 8.375 -11.570312 8.902344 -11.578125 9.503906 -11.535156 C 14.679688 -11.351562 20 -14.757812 22.609375 -22.792969 C 25.082031 -30.410156 21.65625 -36.785156 15.222656 -35.597656 C 8.246094 -36.378906 2.035156 -31.789062 0.519531 -19.355469 C -1.792969 -0.535156 10.695312 -0.480469 15.289062 -1.140625 C 24.734375 -2.496094 29.15625 -8.015625 30.296875 -15.707031 C 30.488281 -17.125 29.886719 -18.09375 28.335938 -18.792969 Z M 12.851562 -31.890625 C 16.984375 -31.625 17.726562 -29.222656 16.480469 -24.089844 C 14.996094 -19.253906 13.714844 -16.695312 7.503906 -16.265625 C 7.546875 -17.328125 7.648438 -18.464844 7.804688 -19.675781 C 8.863281 -27.023438 9.921875 -31.140625 12.851562 -31.890625 Z M 12.851562 -31.890625 "/></g></g></g><g fill="#183b6b" fill-opacity="1"><g transform="translate(259.790703, 282.619262)"><g/></g></g><g fill="#183b6b" fill-opacity="1"><g transform="translate(275.962203, 280.296494)"><g><path d="M 5.832031 -0.308594 C 6.292969 -0.308594 6.644531 -0.625 6.699219 -1.160156 L 8.328125 -14.667969 C 18.734375 -16.6875 25.820312 -20.214844 27.167969 -31.503906 C 28.539062 -42.660156 24.214844 -50.691406 14.125 -49.238281 C 9.464844 -48.570312 5.34375 -46.460938 0.953125 -45.300781 C 0.316406 -45.144531 -0.0703125 -44.625 0.207031 -44.070312 C 0.882812 -42.585938 2.445312 -41.355469 4.414062 -40.980469 L 0.253906 -6.507812 C -0.132812 -3.214844 2.125 -0.371094 5.832031 -0.308594 Z M 11.503906 -40.808594 C 11.550781 -41.410156 11.53125 -42 11.308594 -42.628906 C 12.5 -43.066406 13.691406 -43.5 14.921875 -43.675781 C 18.933594 -44.253906 22.414062 -38.875 20.164062 -31.089844 C 18.367188 -24.757812 15.308594 -21.679688 8.960938 -19.90625 Z M 11.503906 -40.808594 "/></g></g></g><g fill="#183b6b" fill-opacity="1"><g transform="translate(306.041183, 275.976148)"><g><path d="M 2.203125 3.382812 C 2.460938 3.34375 2.671875 2.984375 2.746094 2.578125 L 7.503906 -27.753906 L 11.097656 -28.929688 C 12.039062 -29.265625 12.789062 -28.644531 12.671875 -27.636719 L 10.976562 -16.433594 C 9.476562 -6.644531 12.570312 -0.75 18.652344 -1.621094 C 25.054688 -2.542969 27.863281 -7.371094 29.003906 -15.523438 C 29.195312 -16.9375 28.59375 -17.90625 27.039062 -18.609375 C 26.828125 -18.710938 26.578125 -18.609375 26.550781 -18.339844 C 25.078125 -8.820312 22.214844 -7.613281 20.144531 -7.316406 C 17.558594 -6.945312 17.09375 -8.792969 17.746094 -13.90625 L 19.289062 -26.609375 C 20.085938 -33.457031 18.644531 -35.691406 15.296875 -35.542969 C 12.0625 -35.078125 7.777344 -31.359375 7.019531 -31.117188 C 8.183594 -32.671875 8.734375 -39.417969 5.496094 -38.957031 C 2.652344 -38.546875 1.570312 -36.410156 1.101562 -33.703125 C 0.695312 -31.464844 0.828125 -28.710938 2.835938 -26.6875 L -1.722656 -4.175781 C -2.726562 0.789062 -0.496094 3.4375 2.203125 3.382812 Z M 2.203125 3.382812 "/></g></g></g><g fill="#183b6b" fill-opacity="1"><g transform="translate(332.109643, 272.231847)"><g><path d="M 13.003906 -0.945312 C 20.628906 -2.105469 23.710938 -8.226562 25.265625 -19.015625 C 27.023438 -31.152344 21.3125 -39.640625 13.515625 -35.550781 C 5.992188 -35.0625 1.984375 -28.019531 0.46875 -17.894531 C -1.527344 -4.667969 3.46875 2.078125 13.003906 -0.945312 Z M 10.710938 -4.046875 C 6.910156 -5.21875 6.527344 -11.566406 7.5 -18.113281 C 8.789062 -26.617188 9.875 -31 12.851562 -31.890625 C 18.554688 -32.644531 19.28125 -25.285156 18.230469 -18.796875 C 16.457031 -7.710938 15.0625 -3.617188 10.710938 -4.046875 Z M 10.710938 -4.046875 "/></g></g></g><g fill="#183b6b" fill-opacity="1"><g transform="translate(360.506796, 268.153067)"><g><path d="M 26.910156 -18.589844 C 26.699219 -18.691406 26.449219 -18.589844 26.421875 -18.320312 C 25.308594 -11.359375 21.226562 -7.605469 17.605469 -6.160156 C 18.75 -8.304688 19.699219 -11.347656 19.257812 -16.699219 C 18.886719 -20.671875 17.496094 -27.605469 13.847656 -32.296875 C 14.746094 -33.878906 15.121094 -35.386719 15.195312 -36.714844 C 15.324219 -39.046875 13.871094 -39.496094 11.671875 -39.183594 C 9.34375 -38.847656 8.023438 -37.007812 7.527344 -34.492188 C 6.917969 -31.367188 4.8125 -26.246094 -0.113281 -13.652344 C -0.277344 -14.355469 -0.382812 -15.066406 -0.546875 -15.769531 C -0.695312 -16.339844 -1.214844 -16.730469 -1.722656 -16.589844 C -3.929688 -15.875 -5.519531 -14.0625 -5.027344 -10.636719 C -4.023438 -3.648438 2.082031 0.691406 11.785156 -0.703125 C 20.195312 -1.910156 27.023438 -4.9375 28.875 -15.503906 C 29.066406 -16.917969 28.464844 -17.890625 26.910156 -18.589844 Z M 7.808594 -4.027344 C 4.832031 -3.597656 3.046875 -4.992188 1.816406 -7.589844 L 9.746094 -29.132812 C 15.253906 -19.292969 12.53125 -4.707031 7.808594 -4.027344 Z M 7.808594 -4.027344 "/></g></g></g></svg>