<svg xmlns="http://www.w3.org/2000/svg" xmlns:xlink="http://www.w3.org/1999/xlink" width="500" zoomAndPan="magnify" viewBox="0 0 375 374.999991" height="500" preserveAspectRatio="xMidYMid meet" version="1.0"><defs><g/><clipPath id="58b91be9e5"><path d="M 106 124 L 272 124 L 272 284.042969 L 106 284.042969 Z M 106 124 " clip-rule="nonzero"/></clipPath><clipPath id="2048653b12"><path d="M 208 163.4375 L 225 163.4375 L 225 180 L 208 180 Z M 208 163.4375 " clip-rule="nonzero"/></clipPath><clipPath id="4ad691c3a5"><path d="M 135 198 L 188 198 L 188 278.9375 L 135 278.9375 Z M 135 198 " clip-rule="nonzero"/></clipPath><clipPath id="3fe2d38f93"><path d="M 186.59375 251.210938 L 245.015625 251.210938 L 245.015625 269.6875 L 186.59375 269.6875 Z M 186.59375 251.210938 " clip-rule="nonzero"/></clipPath><clipPath id="8048133b8e"><path d="M 178.539062 210.21875 L 245.015625 210.21875 L 245.015625 250.636719 L 178.539062 250.636719 Z M 178.539062 210.21875 " clip-rule="nonzero"/></clipPath><clipPath id="5a421a4393"><path d="M 182.566406 271 L 245.015625 271 L 245.015625 278.925781 L 182.566406 278.925781 Z M 182.566406 271 " clip-rule="nonzero"/></clipPath></defs><g clip-path="url(#58b91be9e5)"><path fill="#4d7cfe" d="M 179.296875 128.03125 L 106.875 190.613281 L 106.875 284.066406 L 271.164062 284.066406 L 271.164062 190.613281 L 198.746094 128.03125 C 193.160156 123.199219 184.878906 123.199219 179.296875 128.03125 " fill-opacity="1" fill-rule="nonzero"/></g><path fill="#4d7cfe" d="M 296.878906 178.757812 L 259.121094 146.125 C 259.335938 145.363281 259.457031 144.5625 259.457031 143.734375 L 259.457031 114.917969 C 259.457031 110.035156 255.5 106.074219 250.621094 106.074219 C 245.738281 106.074219 241.785156 110.035156 241.785156 114.917969 L 241.785156 131.140625 L 204.519531 98.941406 C 195.683594 91.304688 182.355469 91.304688 173.519531 98.9375 L 81.160156 178.757812 C 77.464844 181.949219 77.054688 187.535156 80.246094 191.230469 C 83.433594 194.929688 89.015625 195.339844 92.707031 192.148438 L 185.070312 112.328125 C 187.320312 110.382812 190.71875 110.382812 192.96875 112.328125 L 285.332031 192.148438 C 287 193.589844 289.058594 194.296875 291.101562 194.296875 C 293.582031 194.296875 296.046875 193.257812 297.796875 191.230469 C 300.984375 187.535156 300.574219 181.949219 296.878906 178.757812 " fill-opacity="1" fill-rule="nonzero"/><path fill="#ffffff" d="M 184.226562 192.035156 C 188.984375 192.035156 194.410156 197.480469 194.410156 202.257812 C 194.410156 202.453125 194.566406 202.613281 194.761719 202.613281 C 194.957031 202.613281 195.113281 202.453125 195.113281 202.257812 C 195.113281 197.480469 200.539062 192.035156 205.296875 192.035156 C 205.492188 192.035156 205.648438 191.878906 205.648438 191.683594 C 205.648438 191.488281 205.492188 191.328125 205.296875 191.328125 C 200.539062 191.328125 195.113281 185.882812 195.113281 181.105469 C 195.113281 180.910156 194.957031 180.753906 194.761719 180.753906 C 194.566406 180.753906 194.410156 180.910156 194.410156 181.105469 C 194.410156 185.882812 188.984375 191.328125 184.226562 191.328125 C 184.03125 191.328125 183.875 191.488281 183.875 191.683594 C 183.875 191.878906 184.03125 192.035156 184.226562 192.035156 " fill-opacity="1" fill-rule="nonzero"/><g clip-path="url(#2048653b12)"><path fill="#ffffff" d="M 208.9375 171.847656 C 212.355469 171.847656 216.25 175.757812 216.25 179.183594 C 216.25 179.378906 216.40625 179.539062 216.601562 179.539062 C 216.792969 179.539062 216.953125 179.378906 216.953125 179.183594 C 216.953125 175.757812 220.847656 171.847656 224.265625 171.847656 C 224.457031 171.847656 224.617188 171.6875 224.617188 171.492188 C 224.617188 171.296875 224.457031 171.140625 224.265625 171.140625 C 220.847656 171.140625 216.953125 167.230469 216.953125 163.800781 C 216.953125 163.605469 216.792969 163.449219 216.601562 163.449219 C 216.40625 163.449219 216.25 163.605469 216.25 163.800781 C 216.25 167.230469 212.355469 171.140625 208.9375 171.140625 C 208.746094 171.140625 208.585938 171.296875 208.585938 171.492188 C 208.585938 171.6875 208.746094 171.847656 208.9375 171.847656 " fill-opacity="1" fill-rule="nonzero"/></g><path fill="#ffffff" d="M 212.890625 199.546875 C 212.695312 199.546875 212.539062 199.707031 212.539062 199.902344 C 212.539062 200.097656 212.695312 200.253906 212.890625 200.253906 C 219.375 200.253906 226.765625 207.671875 226.765625 214.183594 C 226.765625 214.375 226.921875 214.535156 227.117188 214.535156 C 227.308594 214.535156 227.46875 214.375 227.46875 214.183594 C 227.46875 207.671875 234.859375 200.253906 241.347656 200.253906 C 241.539062 200.253906 241.699219 200.097656 241.699219 199.902344 C 241.699219 199.707031 241.539062 199.546875 241.347656 199.546875 C 234.859375 199.546875 227.46875 192.128906 227.46875 185.621094 C 227.46875 185.425781 227.308594 185.269531 227.117188 185.269531 C 226.921875 185.269531 226.765625 185.425781 226.765625 185.621094 C 226.765625 192.128906 219.375 199.546875 212.890625 199.546875 " fill-opacity="1" fill-rule="nonzero"/><path fill="#ffffff" d="M 155.1875 186.773438 C 153.75 186.773438 152.582031 187.945312 152.582031 189.386719 L 152.582031 195.847656 C 152.582031 196.871094 153.410156 197.699219 154.429688 197.699219 L 166.59375 197.699219 C 167.613281 197.699219 168.441406 196.871094 168.441406 195.847656 L 168.441406 189.386719 C 168.441406 187.945312 167.273438 186.773438 165.835938 186.773438 L 155.1875 186.773438 " fill-opacity="1" fill-rule="nonzero"/><path fill="#ffffff" d="M 138.917969 197.957031 C 139.285156 197.957031 139.652344 197.851562 139.984375 197.636719 C 143.75 195.167969 150.09375 188.847656 152.632812 181.894531 C 150.582031 178.910156 146.761719 178.628906 145.421875 178.625 C 144.167969 184.140625 139.804688 191.113281 137.910156 193.835938 L 137.335938 194.667969 C 136.757812 195.511719 136.847656 196.648438 137.550781 197.371094 C 137.925781 197.757812 138.417969 197.957031 138.917969 197.957031 " fill-opacity="1" fill-rule="nonzero"/><path fill="#ffffff" d="M 140.941406 170.273438 L 143.203125 170.273438 L 143.203125 173.691406 L 140.941406 173.691406 Z M 139.097656 177.398438 L 145.046875 177.398438 C 145.070312 177.398438 145.09375 177.390625 145.113281 177.390625 C 145.121094 177.390625 145.132812 177.394531 145.140625 177.394531 C 145.46875 177.378906 153.265625 177.105469 154.910156 184.109375 C 155.105469 184.945312 155.851562 185.535156 156.707031 185.535156 L 163.804688 185.535156 C 164.738281 185.535156 165.523438 184.839844 165.636719 183.914062 C 166.003906 180.976562 168.292969 180.382812 172.96875 180.222656 C 175.101562 180.148438 176.785156 180.09375 177.601562 178.734375 C 177.855469 178.3125 178.199219 177.433594 177.632812 176.261719 C 174.976562 170.746094 168.667969 166.652344 161.933594 166.074219 C 155.929688 165.566406 145.941406 166.476562 144.964844 166.566406 L 139.097656 166.566406 C 138.078125 166.566406 137.25 167.394531 137.25 168.421875 L 137.25 175.542969 C 137.25 176.566406 138.078125 177.398438 139.097656 177.398438 " fill-opacity="1" fill-rule="nonzero"/><g clip-path="url(#4ad691c3a5)"><path fill="#ffffff" d="M 183.726562 275.089844 C 191.007812 254.914062 187.589844 234.78125 174.101562 218.402344 C 170.535156 214.066406 170.867188 209.800781 171.460938 206.140625 C 172.203125 201.546875 168.914062 199.4375 167.074219 198.960938 C 166.921875 198.921875 166.769531 198.902344 166.613281 198.902344 L 154.429688 198.902344 C 154.085938 198.902344 153.75 198.996094 153.460938 199.175781 C 151.488281 200.398438 150.320312 201.871094 149.984375 203.5625 C 149.46875 206.179688 151.066406 208.390625 152.125 209.855469 C 152.191406 209.945312 152.265625 210.050781 152.335938 210.152344 C 150.222656 212.765625 150.695312 215.988281 152.0625 218.496094 C 150.8125 220.046875 149.734375 222.578125 150.5625 225.792969 C 143.722656 230.207031 139.5 234.773438 137.671875 239.726562 C 132.523438 253.648438 138.742188 269.796875 140.785156 275.101562 L 140.910156 275.425781 C 141.742188 277.585938 143.570312 278.925781 145.683594 278.925781 L 178.847656 278.925781 C 181.003906 278.925781 182.851562 277.523438 183.667969 275.257812 L 183.726562 275.089844 " fill-opacity="1" fill-rule="nonzero"/></g><g clip-path="url(#3fe2d38f93)"><path fill="#ffffff" d="M 209.882812 253.332031 L 209.882812 257.097656 C 209.882812 258.832031 208.476562 260.246094 206.746094 260.246094 L 201.9375 260.246094 C 200.207031 260.246094 198.800781 258.832031 198.800781 257.097656 L 198.800781 253.332031 L 188.835938 253.332031 C 188.945312 258.691406 188.292969 264.152344 186.867188 269.644531 L 245.03125 269.644531 L 245.03125 251.433594 C 243.644531 252.613281 241.855469 253.332031 239.898438 253.332031 L 209.882812 253.332031 " fill-opacity="1" fill-rule="nonzero"/></g><path fill="#ffffff" d="M 201.617188 257.097656 C 201.617188 257.273438 201.761719 257.421875 201.9375 257.421875 L 206.746094 257.421875 C 206.925781 257.421875 207.070312 257.273438 207.070312 257.097656 L 207.070312 248.121094 C 207.070312 247.945312 206.925781 247.800781 206.746094 247.800781 L 201.9375 247.800781 C 201.761719 247.800781 201.617188 247.945312 201.617188 248.121094 L 201.617188 251.910156 C 201.617188 251.914062 201.617188 251.914062 201.617188 251.917969 C 201.617188 251.921875 201.617188 251.921875 201.617188 251.925781 L 201.617188 257.097656 " fill-opacity="1" fill-rule="nonzero"/><g clip-path="url(#8048133b8e)"><path fill="#ffffff" d="M 213.929688 222.144531 L 194.757812 222.144531 L 194.757812 218.316406 C 194.757812 217.054688 195.78125 216.027344 197.039062 216.027344 L 211.644531 216.027344 C 212.902344 216.027344 213.929688 217.054688 213.929688 218.316406 Z M 231.378906 222.144531 L 219.558594 222.144531 L 219.558594 218.316406 C 219.558594 213.9375 216.007812 210.375 211.644531 210.375 L 197.039062 210.375 C 192.675781 210.375 189.128906 213.9375 189.128906 218.316406 L 189.128906 222.144531 L 178.644531 222.144531 C 184.628906 230.878906 188.007812 240.492188 188.714844 250.507812 L 198.800781 250.507812 L 198.800781 248.121094 C 198.800781 246.386719 200.207031 244.976562 201.9375 244.976562 L 206.746094 244.976562 C 208.476562 244.976562 209.882812 246.386719 209.882812 248.121094 L 209.882812 250.507812 L 239.898438 250.507812 C 242.714844 250.507812 245.007812 248.214844 245.03125 245.390625 L 245.03125 235.84375 C 245.03125 228.289062 238.90625 222.144531 231.378906 222.144531 " fill-opacity="1" fill-rule="nonzero"/></g><g clip-path="url(#5a421a4393)"><path fill="#ffffff" d="M 185.046875 275.570312 L 184.996094 275.722656 C 184.515625 277.054688 183.738281 278.136719 182.773438 278.925781 L 238.269531 278.925781 C 241.996094 278.925781 245.03125 275.882812 245.03125 272.140625 L 245.03125 271.054688 L 186.480469 271.054688 C 186.054688 272.5625 185.59375 274.066406 185.046875 275.570312 " fill-opacity="1" fill-rule="nonzero"/></g><g fill="#333333" fill-opacity="1"><g transform="translate(74.055604, 314.285419)"><g><path d="M 1.6875 -1.5 L 1.6875 -21.421875 C 1.6875 -21.898438 1.925781 -22.265625 2.40625 -22.515625 C 2.882812 -22.765625 3.457031 -22.890625 4.125 -22.890625 C 4.800781 -22.890625 5.378906 -22.765625 5.859375 -22.515625 C 6.335938 -22.265625 6.578125 -21.898438 6.578125 -21.421875 L 6.578125 -13.75 L 12.8125 -13.75 L 12.8125 -21.421875 C 12.8125 -21.898438 13.050781 -22.265625 13.53125 -22.515625 C 14.007812 -22.765625 14.582031 -22.890625 15.25 -22.890625 C 15.914062 -22.890625 16.488281 -22.765625 16.96875 -22.515625 C 17.445312 -22.265625 17.6875 -21.898438 17.6875 -21.421875 L 17.6875 -1.5 C 17.6875 -1.019531 17.445312 -0.648438 16.96875 -0.390625 C 16.488281 -0.128906 15.914062 0 15.25 0 C 14.582031 0 14.007812 -0.128906 13.53125 -0.390625 C 13.050781 -0.648438 12.8125 -1.019531 12.8125 -1.5 L 12.8125 -9.984375 L 6.578125 -9.984375 L 6.578125 -1.5 C 6.578125 -1.019531 6.335938 -0.648438 5.859375 -0.390625 C 5.378906 -0.128906 4.800781 0 4.125 0 C 3.457031 0 2.882812 -0.128906 2.40625 -0.390625 C 1.925781 -0.648438 1.6875 -1.019531 1.6875 -1.5 Z M 1.6875 -1.5 "/></g></g></g><g fill="#333333" fill-opacity="1"><g transform="translate(93.43686, 314.285419)"><g><path d="M 1.4375 -7.203125 L 1.4375 -15.5 C 1.4375 -18.039062 2.132812 -19.90625 3.53125 -21.09375 C 4.9375 -22.289062 6.796875 -22.890625 9.109375 -22.890625 C 11.453125 -22.890625 13.320312 -22.289062 14.71875 -21.09375 C 16.113281 -19.90625 16.8125 -18.039062 16.8125 -15.5 L 16.8125 -7.203125 C 16.8125 -4.648438 16.113281 -2.78125 14.71875 -1.59375 C 13.320312 -0.40625 11.453125 0.1875 9.109375 0.1875 C 6.796875 0.1875 4.9375 -0.40625 3.53125 -1.59375 C 2.132812 -2.78125 1.4375 -4.648438 1.4375 -7.203125 Z M 6.328125 -7.203125 C 6.328125 -5.117188 7.253906 -4.078125 9.109375 -4.078125 C 10.992188 -4.078125 11.9375 -5.117188 11.9375 -7.203125 L 11.9375 -15.5 C 11.9375 -17.582031 10.992188 -18.625 9.109375 -18.625 C 7.253906 -18.625 6.328125 -17.582031 6.328125 -15.5 Z M 6.328125 -7.203125 "/></g></g></g><g fill="#333333" fill-opacity="1"><g transform="translate(111.690948, 314.285419)"><g><path d="M 1.59375 -7.203125 L 1.59375 -21.421875 C 1.59375 -21.898438 1.828125 -22.265625 2.296875 -22.515625 C 2.765625 -22.765625 3.347656 -22.890625 4.046875 -22.890625 C 4.710938 -22.890625 5.285156 -22.765625 5.765625 -22.515625 C 6.242188 -22.265625 6.484375 -21.898438 6.484375 -21.421875 L 6.484375 -7.203125 C 6.484375 -5.117188 7.484375 -4.078125 9.484375 -4.078125 C 11.492188 -4.078125 12.5 -5.117188 12.5 -7.203125 L 12.5 -21.421875 C 12.5 -21.898438 12.734375 -22.265625 13.203125 -22.515625 C 13.671875 -22.765625 14.25 -22.890625 14.9375 -22.890625 C 15.601562 -22.890625 16.175781 -22.765625 16.65625 -22.515625 C 17.132812 -22.265625 17.375 -21.898438 17.375 -21.421875 L 17.375 -7.203125 C 17.375 -4.648438 16.65625 -2.78125 15.21875 -1.59375 C 13.78125 -0.40625 11.867188 0.1875 9.484375 0.1875 C 7.085938 0.1875 5.171875 -0.40625 3.734375 -1.59375 C 2.304688 -2.78125 1.59375 -4.648438 1.59375 -7.203125 Z M 1.59375 -7.203125 "/></g></g></g><g fill="#333333" fill-opacity="1"><g transform="translate(130.665176, 314.285419)"><g><path d="M 0.59375 -3.75 C 0.59375 -4.34375 0.804688 -4.929688 1.234375 -5.515625 C 1.660156 -6.097656 2.15625 -6.390625 2.71875 -6.390625 C 3.03125 -6.390625 3.378906 -6.269531 3.765625 -6.03125 C 4.160156 -5.789062 4.519531 -5.523438 4.84375 -5.234375 C 5.164062 -4.941406 5.617188 -4.675781 6.203125 -4.4375 C 6.785156 -4.195312 7.398438 -4.078125 8.046875 -4.078125 C 8.859375 -4.078125 9.566406 -4.25 10.171875 -4.59375 C 10.773438 -4.9375 11.078125 -5.453125 11.078125 -6.140625 C 11.078125 -6.828125 10.738281 -7.429688 10.0625 -7.953125 C 9.382812 -8.472656 8.5625 -8.945312 7.59375 -9.375 C 6.625 -9.800781 5.644531 -10.28125 4.65625 -10.8125 C 3.675781 -11.34375 2.847656 -12.097656 2.171875 -13.078125 C 1.492188 -14.066406 1.15625 -15.238281 1.15625 -16.59375 C 1.15625 -18.769531 1.9375 -20.394531 3.5 -21.46875 C 5.070312 -22.539062 6.960938 -23.078125 9.171875 -23.078125 C 9.710938 -23.078125 10.28125 -23.046875 10.875 -22.984375 C 11.476562 -22.921875 12.148438 -22.800781 12.890625 -22.625 C 13.628906 -22.445312 14.234375 -22.160156 14.703125 -21.765625 C 15.171875 -21.367188 15.40625 -20.890625 15.40625 -20.328125 C 15.40625 -19.773438 15.234375 -19.207031 14.890625 -18.625 C 14.546875 -18.039062 14.070312 -17.75 13.46875 -17.75 C 13.21875 -17.75 12.679688 -17.945312 11.859375 -18.34375 C 11.046875 -18.738281 10.148438 -18.9375 9.171875 -18.9375 C 8.128906 -18.9375 7.347656 -18.753906 6.828125 -18.390625 C 6.304688 -18.023438 6.046875 -17.582031 6.046875 -17.0625 C 6.046875 -16.582031 6.289062 -16.144531 6.78125 -15.75 C 7.269531 -15.351562 7.878906 -15.015625 8.609375 -14.734375 C 9.335938 -14.453125 10.132812 -14.085938 11 -13.640625 C 11.875 -13.191406 12.675781 -12.695312 13.40625 -12.15625 C 14.132812 -11.625 14.742188 -10.878906 15.234375 -9.921875 C 15.722656 -8.960938 15.96875 -7.867188 15.96875 -6.640625 C 15.96875 -4.441406 15.242188 -2.734375 13.796875 -1.515625 C 12.359375 -0.296875 10.472656 0.3125 8.140625 0.3125 C 6.117188 0.3125 4.351562 -0.101562 2.84375 -0.9375 C 1.34375 -1.769531 0.59375 -2.707031 0.59375 -3.75 Z M 0.59375 -3.75 "/></g></g></g><g fill="#333333" fill-opacity="1"><g transform="translate(147.353733, 314.285419)"><g><path d="M 1.6875 -1.5 L 1.6875 -21.390625 C 1.6875 -21.867188 1.894531 -22.238281 2.3125 -22.5 C 2.726562 -22.757812 3.226562 -22.890625 3.8125 -22.890625 L 14.96875 -22.890625 C 15.445312 -22.890625 15.8125 -22.679688 16.0625 -22.265625 C 16.3125 -21.847656 16.4375 -21.359375 16.4375 -20.796875 C 16.4375 -20.191406 16.304688 -19.675781 16.046875 -19.25 C 15.785156 -18.832031 15.425781 -18.625 14.96875 -18.625 L 6.578125 -18.625 L 6.578125 -13.34375 L 11.265625 -13.34375 C 11.734375 -13.34375 12.097656 -13.15625 12.359375 -12.78125 C 12.617188 -12.40625 12.75 -11.953125 12.75 -11.421875 C 12.75 -10.941406 12.625 -10.515625 12.375 -10.140625 C 12.125 -9.765625 11.753906 -9.578125 11.265625 -9.578125 L 6.578125 -9.578125 L 6.578125 -4.265625 L 14.96875 -4.265625 C 15.425781 -4.265625 15.785156 -4.050781 16.046875 -3.625 C 16.304688 -3.207031 16.4375 -2.695312 16.4375 -2.09375 C 16.4375 -1.53125 16.3125 -1.039062 16.0625 -0.625 C 15.8125 -0.207031 15.445312 0 14.96875 0 L 3.8125 0 C 3.226562 0 2.726562 -0.128906 2.3125 -0.390625 C 1.894531 -0.648438 1.6875 -1.019531 1.6875 -1.5 Z M 1.6875 -1.5 "/></g></g></g><g fill="#333333" fill-opacity="1"><g transform="translate(164.230152, 314.285419)"><g/></g></g><g fill="#333333" fill-opacity="1"><g transform="translate(170.492274, 314.285419)"><g><path d="M 1.4375 -7.203125 L 1.4375 -15.5 C 1.4375 -18.039062 2.128906 -19.90625 3.515625 -21.09375 C 4.910156 -22.289062 6.722656 -22.890625 8.953125 -22.890625 C 11.253906 -22.890625 13.140625 -22.332031 14.609375 -21.21875 C 16.078125 -20.113281 16.8125 -18.59375 16.8125 -16.65625 C 16.8125 -15.757812 16.625 -15.148438 16.25 -14.828125 C 15.875 -14.503906 15.25 -14.34375 14.375 -14.34375 C 12.8125 -14.34375 12 -14.832031 11.9375 -15.8125 C 11.875 -17.6875 10.941406 -18.625 9.140625 -18.625 C 7.265625 -18.625 6.328125 -17.582031 6.328125 -15.5 L 6.328125 -7.203125 C 6.328125 -5.117188 7.273438 -4.078125 9.171875 -4.078125 C 9.753906 -4.078125 10.238281 -4.171875 10.625 -4.359375 C 11.007812 -4.546875 11.285156 -4.832031 11.453125 -5.21875 C 11.617188 -5.601562 11.726562 -5.921875 11.78125 -6.171875 C 11.84375 -6.421875 11.894531 -6.765625 11.9375 -7.203125 C 12.019531 -8.179688 12.820312 -8.671875 14.34375 -8.671875 C 15.238281 -8.671875 15.875 -8.507812 16.25 -8.1875 C 16.625 -7.863281 16.8125 -7.253906 16.8125 -6.359375 C 16.8125 -4.328125 16.078125 -2.726562 14.609375 -1.5625 C 13.140625 -0.394531 11.253906 0.1875 8.953125 0.1875 C 6.722656 0.1875 4.910156 -0.40625 3.515625 -1.59375 C 2.128906 -2.78125 1.4375 -4.648438 1.4375 -7.203125 Z M 1.4375 -7.203125 "/></g></g></g><g fill="#333333" fill-opacity="1"><g transform="translate(188.088833, 314.285419)"><g><path d="M 1.6875 -1.5 L 1.6875 -21.421875 C 1.6875 -21.898438 1.925781 -22.265625 2.40625 -22.515625 C 2.882812 -22.765625 3.457031 -22.890625 4.125 -22.890625 C 4.800781 -22.890625 5.378906 -22.765625 5.859375 -22.515625 C 6.335938 -22.265625 6.578125 -21.898438 6.578125 -21.421875 L 6.578125 -4.265625 L 13.71875 -4.265625 C 14.15625 -4.265625 14.5 -4.050781 14.75 -3.625 C 15 -3.207031 15.125 -2.707031 15.125 -2.125 C 15.125 -1.539062 15 -1.039062 14.75 -0.625 C 14.5 -0.207031 14.15625 0 13.71875 0 L 3.8125 0 C 3.226562 0 2.726562 -0.128906 2.3125 -0.390625 C 1.894531 -0.648438 1.6875 -1.019531 1.6875 -1.5 Z M 1.6875 -1.5 "/></g></g></g><g fill="#333333" fill-opacity="1"><g transform="translate(203.493651, 314.285419)"><g><path d="M 1.6875 -1.5 L 1.6875 -21.390625 C 1.6875 -21.867188 1.894531 -22.238281 2.3125 -22.5 C 2.726562 -22.757812 3.226562 -22.890625 3.8125 -22.890625 L 14.96875 -22.890625 C 15.445312 -22.890625 15.8125 -22.679688 16.0625 -22.265625 C 16.3125 -21.847656 16.4375 -21.359375 16.4375 -20.796875 C 16.4375 -20.191406 16.304688 -19.675781 16.046875 -19.25 C 15.785156 -18.832031 15.425781 -18.625 14.96875 -18.625 L 6.578125 -18.625 L 6.578125 -13.34375 L 11.265625 -13.34375 C 11.734375 -13.34375 12.097656 -13.15625 12.359375 -12.78125 C 12.617188 -12.40625 12.75 -11.953125 12.75 -11.421875 C 12.75 -10.941406 12.625 -10.515625 12.375 -10.140625 C 12.125 -9.765625 11.753906 -9.578125 11.265625 -9.578125 L 6.578125 -9.578125 L 6.578125 -4.265625 L 14.96875 -4.265625 C 15.425781 -4.265625 15.785156 -4.050781 16.046875 -3.625 C 16.304688 -3.207031 16.4375 -2.695312 16.4375 -2.09375 C 16.4375 -1.53125 16.3125 -1.039062 16.0625 -0.625 C 15.8125 -0.207031 15.445312 0 14.96875 0 L 3.8125 0 C 3.226562 0 2.726562 -0.128906 2.3125 -0.390625 C 1.894531 -0.648438 1.6875 -1.019531 1.6875 -1.5 Z M 1.6875 -1.5 "/></g></g></g><g fill="#333333" fill-opacity="1"><g transform="translate(220.37007, 314.285419)"><g><path d="M 0.125 -2 C 0.125 -2.0625 0.144531 -2.175781 0.1875 -2.34375 L 6.015625 -21.453125 C 6.179688 -21.972656 6.5625 -22.375 7.15625 -22.65625 C 7.75 -22.9375 8.429688 -23.078125 9.203125 -23.078125 C 9.972656 -23.078125 10.65625 -22.9375 11.25 -22.65625 C 11.851562 -22.375 12.238281 -21.972656 12.40625 -21.453125 L 18.25 -2.34375 C 18.289062 -2.175781 18.3125 -2.0625 18.3125 -2 C 18.3125 -1.457031 17.972656 -0.988281 17.296875 -0.59375 C 16.617188 -0.195312 15.914062 0 15.1875 0 C 14.289062 0 13.757812 -0.300781 13.59375 -0.90625 L 12.53125 -4.828125 L 5.921875 -4.828125 L 4.859375 -0.90625 C 4.691406 -0.300781 4.15625 0 3.25 0 C 2.519531 0 1.816406 -0.195312 1.140625 -0.59375 C 0.460938 -0.988281 0.125 -1.457031 0.125 -2 Z M 6.921875 -8.578125 L 11.484375 -8.578125 L 9.203125 -16.96875 Z M 6.921875 -8.578125 "/></g></g></g><g fill="#333333" fill-opacity="1"><g transform="translate(238.812019, 314.285419)"><g><path d="M 1.6875 -1.5 L 1.6875 -21.390625 C 1.6875 -21.867188 1.925781 -22.238281 2.40625 -22.5 C 2.882812 -22.757812 3.460938 -22.890625 4.140625 -22.890625 C 5.078125 -22.890625 5.769531 -22.753906 6.21875 -22.484375 C 6.664062 -22.210938 7.171875 -21.535156 7.734375 -20.453125 L 12.8125 -10.765625 L 12.8125 -21.421875 C 12.8125 -21.898438 13.050781 -22.265625 13.53125 -22.515625 C 14.007812 -22.765625 14.582031 -22.890625 15.25 -22.890625 C 15.914062 -22.890625 16.488281 -22.765625 16.96875 -22.515625 C 17.445312 -22.265625 17.6875 -21.898438 17.6875 -21.421875 L 17.6875 -1.5 C 17.6875 -1.019531 17.445312 -0.648438 16.96875 -0.390625 C 16.488281 -0.128906 15.914062 0 15.25 0 C 13.914062 0 13.007812 -0.4375 12.53125 -1.3125 L 6.578125 -12.15625 L 6.578125 -1.5 C 6.578125 -1.019531 6.335938 -0.648438 5.859375 -0.390625 C 5.378906 -0.128906 4.800781 0 4.125 0 C 3.457031 0 2.882812 -0.128906 2.40625 -0.390625 C 1.925781 -0.648438 1.6875 -1.019531 1.6875 -1.5 Z M 1.6875 -1.5 "/></g></g></g><g fill="#333333" fill-opacity="1"><g transform="translate(258.193276, 314.285419)"><g><path d="M 1.6875 -1.5 L 1.6875 -21.421875 C 1.6875 -21.898438 1.925781 -22.265625 2.40625 -22.515625 C 2.882812 -22.765625 3.457031 -22.890625 4.125 -22.890625 C 4.800781 -22.890625 5.378906 -22.765625 5.859375 -22.515625 C 6.335938 -22.265625 6.578125 -21.898438 6.578125 -21.421875 L 6.578125 -1.5 C 6.578125 -1.019531 6.335938 -0.648438 5.859375 -0.390625 C 5.378906 -0.128906 4.800781 0 4.125 0 C 3.457031 0 2.882812 -0.128906 2.40625 -0.390625 C 1.925781 -0.648438 1.6875 -1.019531 1.6875 -1.5 Z M 1.6875 -1.5 "/></g></g></g><g fill="#333333" fill-opacity="1"><g transform="translate(266.459276, 314.285419)"><g><path d="M 1.6875 -1.5 L 1.6875 -21.390625 C 1.6875 -21.867188 1.925781 -22.238281 2.40625 -22.5 C 2.882812 -22.757812 3.460938 -22.890625 4.140625 -22.890625 C 5.078125 -22.890625 5.769531 -22.753906 6.21875 -22.484375 C 6.664062 -22.210938 7.171875 -21.535156 7.734375 -20.453125 L 12.8125 -10.765625 L 12.8125 -21.421875 C 12.8125 -21.898438 13.050781 -22.265625 13.53125 -22.515625 C 14.007812 -22.765625 14.582031 -22.890625 15.25 -22.890625 C 15.914062 -22.890625 16.488281 -22.765625 16.96875 -22.515625 C 17.445312 -22.265625 17.6875 -21.898438 17.6875 -21.421875 L 17.6875 -1.5 C 17.6875 -1.019531 17.445312 -0.648438 16.96875 -0.390625 C 16.488281 -0.128906 15.914062 0 15.25 0 C 13.914062 0 13.007812 -0.4375 12.53125 -1.3125 L 6.578125 -12.15625 L 6.578125 -1.5 C 6.578125 -1.019531 6.335938 -0.648438 5.859375 -0.390625 C 5.378906 -0.128906 4.800781 0 4.125 0 C 3.457031 0 2.882812 -0.128906 2.40625 -0.390625 C 1.925781 -0.648438 1.6875 -1.019531 1.6875 -1.5 Z M 1.6875 -1.5 "/></g></g></g><g fill="#333333" fill-opacity="1"><g transform="translate(285.840533, 314.285419)"><g><path d="M 1.4375 -7.203125 L 1.4375 -15.5 C 1.4375 -18.039062 2.128906 -19.90625 3.515625 -21.09375 C 4.910156 -22.289062 6.722656 -22.890625 8.953125 -22.890625 C 11.253906 -22.890625 13.140625 -22.332031 14.609375 -21.21875 C 16.078125 -20.113281 16.8125 -18.59375 16.8125 -16.65625 C 16.8125 -15.757812 16.625 -15.148438 16.25 -14.828125 C 15.875 -14.503906 15.25 -14.34375 14.375 -14.34375 C 12.769531 -14.34375 11.957031 -14.832031 11.9375 -15.8125 C 11.9375 -16.101562 11.925781 -16.347656 11.90625 -16.546875 C 11.882812 -16.742188 11.816406 -16.988281 11.703125 -17.28125 C 11.597656 -17.570312 11.453125 -17.800781 11.265625 -17.96875 C 11.078125 -18.132812 10.800781 -18.285156 10.4375 -18.421875 C 10.070312 -18.554688 9.640625 -18.625 9.140625 -18.625 C 7.265625 -18.625 6.328125 -17.582031 6.328125 -15.5 L 6.328125 -7.203125 C 6.328125 -5.117188 7.253906 -4.078125 9.109375 -4.078125 C 10.992188 -4.078125 11.9375 -5.117188 11.9375 -7.203125 L 11.9375 -8.265625 L 10.078125 -8.265625 C 9.617188 -8.265625 9.257812 -8.445312 9 -8.8125 C 8.738281 -9.175781 8.609375 -9.617188 8.609375 -10.140625 C 8.609375 -10.617188 8.742188 -11.050781 9.015625 -11.4375 C 9.285156 -11.832031 9.640625 -12.03125 10.078125 -12.03125 L 15.34375 -12.03125 C 15.800781 -12.03125 16.160156 -11.875 16.421875 -11.5625 C 16.679688 -11.257812 16.8125 -10.898438 16.8125 -10.484375 L 16.8125 -7.203125 C 16.8125 -4.648438 16.113281 -2.78125 14.71875 -1.59375 C 13.320312 -0.40625 11.453125 0.1875 9.109375 0.1875 C 6.796875 0.1875 4.9375 -0.40625 3.53125 -1.59375 C 2.132812 -2.78125 1.4375 -4.648438 1.4375 -7.203125 Z M 1.4375 -7.203125 "/></g></g></g><g fill="#333333" fill-opacity="1"><g transform="translate(109.784815, 80.560733)"><g><path d="M 1.6875 -1.5 L 1.6875 -20.453125 C 1.6875 -21.285156 1.921875 -21.898438 2.390625 -22.296875 C 2.859375 -22.691406 3.441406 -22.890625 4.140625 -22.890625 C 5.078125 -22.890625 5.789062 -22.75 6.28125 -22.46875 C 6.769531 -22.1875 7.316406 -21.515625 7.921875 -20.453125 L 11.140625 -14.8125 L 14.375 -20.453125 C 14.976562 -21.515625 15.523438 -22.1875 16.015625 -22.46875 C 16.503906 -22.75 17.21875 -22.890625 18.15625 -22.890625 C 18.84375 -22.890625 19.421875 -22.691406 19.890625 -22.296875 C 20.367188 -21.898438 20.609375 -21.285156 20.609375 -20.453125 L 20.609375 -1.5 C 20.609375 -1.019531 20.363281 -0.648438 19.875 -0.390625 C 19.394531 -0.128906 18.820312 0 18.15625 0 C 17.488281 0 16.914062 -0.128906 16.4375 -0.390625 C 15.957031 -0.648438 15.71875 -1.019531 15.71875 -1.5 L 15.71875 -13.25 L 12.71875 -8.109375 C 12.363281 -7.503906 11.816406 -7.203125 11.078125 -7.203125 C 10.367188 -7.203125 9.859375 -7.503906 9.546875 -8.109375 L 6.578125 -13.5625 L 6.578125 -1.5 C 6.578125 -1.019531 6.335938 -0.648438 5.859375 -0.390625 C 5.378906 -0.128906 4.800781 0 4.125 0 C 3.457031 0 2.882812 -0.128906 2.40625 -0.390625 C 1.925781 -0.648438 1.6875 -1.019531 1.6875 -1.5 Z M 1.6875 -1.5 "/></g></g></g><g fill="#333333" fill-opacity="1"><g transform="translate(132.077965, 80.560733)"><g><path d="M 0.125 -2 C 0.125 -2.0625 0.144531 -2.175781 0.1875 -2.34375 L 6.015625 -21.453125 C 6.179688 -21.972656 6.5625 -22.375 7.15625 -22.65625 C 7.75 -22.9375 8.429688 -23.078125 9.203125 -23.078125 C 9.972656 -23.078125 10.65625 -22.9375 11.25 -22.65625 C 11.851562 -22.375 12.238281 -21.972656 12.40625 -21.453125 L 18.25 -2.34375 C 18.289062 -2.175781 18.3125 -2.0625 18.3125 -2 C 18.3125 -1.457031 17.972656 -0.988281 17.296875 -0.59375 C 16.617188 -0.195312 15.914062 0 15.1875 0 C 14.289062 0 13.757812 -0.300781 13.59375 -0.90625 L 12.53125 -4.828125 L 5.921875 -4.828125 L 4.859375 -0.90625 C 4.691406 -0.300781 4.15625 0 3.25 0 C 2.519531 0 1.816406 -0.195312 1.140625 -0.59375 C 0.460938 -0.988281 0.125 -1.457031 0.125 -2 Z M 6.921875 -8.578125 L 11.484375 -8.578125 L 9.203125 -16.96875 Z M 6.921875 -8.578125 "/></g></g></g><g fill="#333333" fill-opacity="1"><g transform="translate(150.519914, 80.560733)"><g><path d="M 1.4375 -7.203125 L 1.4375 -15.5 C 1.4375 -18.039062 2.128906 -19.90625 3.515625 -21.09375 C 4.910156 -22.289062 6.722656 -22.890625 8.953125 -22.890625 C 11.253906 -22.890625 13.140625 -22.332031 14.609375 -21.21875 C 16.078125 -20.113281 16.8125 -18.59375 16.8125 -16.65625 C 16.8125 -15.757812 16.625 -15.148438 16.25 -14.828125 C 15.875 -14.503906 15.25 -14.34375 14.375 -14.34375 C 12.769531 -14.34375 11.957031 -14.832031 11.9375 -15.8125 C 11.9375 -16.101562 11.925781 -16.347656 11.90625 -16.546875 C 11.882812 -16.742188 11.816406 -16.988281 11.703125 -17.28125 C 11.597656 -17.570312 11.453125 -17.800781 11.265625 -17.96875 C 11.078125 -18.132812 10.800781 -18.285156 10.4375 -18.421875 C 10.070312 -18.554688 9.640625 -18.625 9.140625 -18.625 C 7.265625 -18.625 6.328125 -17.582031 6.328125 -15.5 L 6.328125 -7.203125 C 6.328125 -5.117188 7.253906 -4.078125 9.109375 -4.078125 C 10.992188 -4.078125 11.9375 -5.117188 11.9375 -7.203125 L 11.9375 -8.265625 L 10.078125 -8.265625 C 9.617188 -8.265625 9.257812 -8.445312 9 -8.8125 C 8.738281 -9.175781 8.609375 -9.617188 8.609375 -10.140625 C 8.609375 -10.617188 8.742188 -11.050781 9.015625 -11.4375 C 9.285156 -11.832031 9.640625 -12.03125 10.078125 -12.03125 L 15.34375 -12.03125 C 15.800781 -12.03125 16.160156 -11.875 16.421875 -11.5625 C 16.679688 -11.257812 16.8125 -10.898438 16.8125 -10.484375 L 16.8125 -7.203125 C 16.8125 -4.648438 16.113281 -2.78125 14.71875 -1.59375 C 13.320312 -0.40625 11.453125 0.1875 9.109375 0.1875 C 6.796875 0.1875 4.9375 -0.40625 3.53125 -1.59375 C 2.132812 -2.78125 1.4375 -4.648438 1.4375 -7.203125 Z M 1.4375 -7.203125 "/></g></g></g><g fill="#333333" fill-opacity="1"><g transform="translate(168.46089, 80.560733)"><g><path d="M 1.6875 -1.5 L 1.6875 -21.421875 C 1.6875 -21.898438 1.925781 -22.265625 2.40625 -22.515625 C 2.882812 -22.765625 3.457031 -22.890625 4.125 -22.890625 C 4.800781 -22.890625 5.378906 -22.765625 5.859375 -22.515625 C 6.335938 -22.265625 6.578125 -21.898438 6.578125 -21.421875 L 6.578125 -1.5 C 6.578125 -1.019531 6.335938 -0.648438 5.859375 -0.390625 C 5.378906 -0.128906 4.800781 0 4.125 0 C 3.457031 0 2.882812 -0.128906 2.40625 -0.390625 C 1.925781 -0.648438 1.6875 -1.019531 1.6875 -1.5 Z M 1.6875 -1.5 "/></g></g></g><g fill="#333333" fill-opacity="1"><g transform="translate(176.726891, 80.560733)"><g><path d="M 1.4375 -7.203125 L 1.4375 -15.5 C 1.4375 -18.039062 2.128906 -19.90625 3.515625 -21.09375 C 4.910156 -22.289062 6.722656 -22.890625 8.953125 -22.890625 C 11.253906 -22.890625 13.140625 -22.332031 14.609375 -21.21875 C 16.078125 -20.113281 16.8125 -18.59375 16.8125 -16.65625 C 16.8125 -15.757812 16.625 -15.148438 16.25 -14.828125 C 15.875 -14.503906 15.25 -14.34375 14.375 -14.34375 C 12.8125 -14.34375 12 -14.832031 11.9375 -15.8125 C 11.875 -17.6875 10.941406 -18.625 9.140625 -18.625 C 7.265625 -18.625 6.328125 -17.582031 6.328125 -15.5 L 6.328125 -7.203125 C 6.328125 -5.117188 7.273438 -4.078125 9.171875 -4.078125 C 9.753906 -4.078125 10.238281 -4.171875 10.625 -4.359375 C 11.007812 -4.546875 11.285156 -4.832031 11.453125 -5.21875 C 11.617188 -5.601562 11.726562 -5.921875 11.78125 -6.171875 C 11.84375 -6.421875 11.894531 -6.765625 11.9375 -7.203125 C 12.019531 -8.179688 12.820312 -8.671875 14.34375 -8.671875 C 15.238281 -8.671875 15.875 -8.507812 16.25 -8.1875 C 16.625 -7.863281 16.8125 -7.253906 16.8125 -6.359375 C 16.8125 -4.328125 16.078125 -2.726562 14.609375 -1.5625 C 13.140625 -0.394531 11.253906 0.1875 8.953125 0.1875 C 6.722656 0.1875 4.910156 -0.40625 3.515625 -1.59375 C 2.128906 -2.78125 1.4375 -4.648438 1.4375 -7.203125 Z M 1.4375 -7.203125 "/></g></g></g><g fill="#333333" fill-opacity="1"><g transform="translate(194.32345, 80.560733)"><g/></g></g><g fill="#333333" fill-opacity="1"><g transform="translate(200.585572, 80.560733)"><g><path d="M 1.6875 -1.5 L 1.6875 -20.453125 C 1.6875 -21.285156 1.921875 -21.898438 2.390625 -22.296875 C 2.859375 -22.691406 3.441406 -22.890625 4.140625 -22.890625 C 5.078125 -22.890625 5.789062 -22.75 6.28125 -22.46875 C 6.769531 -22.1875 7.316406 -21.515625 7.921875 -20.453125 L 11.140625 -14.8125 L 14.375 -20.453125 C 14.976562 -21.515625 15.523438 -22.1875 16.015625 -22.46875 C 16.503906 -22.75 17.21875 -22.890625 18.15625 -22.890625 C 18.84375 -22.890625 19.421875 -22.691406 19.890625 -22.296875 C 20.367188 -21.898438 20.609375 -21.285156 20.609375 -20.453125 L 20.609375 -1.5 C 20.609375 -1.019531 20.363281 -0.648438 19.875 -0.390625 C 19.394531 -0.128906 18.820312 0 18.15625 0 C 17.488281 0 16.914062 -0.128906 16.4375 -0.390625 C 15.957031 -0.648438 15.71875 -1.019531 15.71875 -1.5 L 15.71875 -13.25 L 12.71875 -8.109375 C 12.363281 -7.503906 11.816406 -7.203125 11.078125 -7.203125 C 10.367188 -7.203125 9.859375 -7.503906 9.546875 -8.109375 L 6.578125 -13.5625 L 6.578125 -1.5 C 6.578125 -1.019531 6.335938 -0.648438 5.859375 -0.390625 C 5.378906 -0.128906 4.800781 0 4.125 0 C 3.457031 0 2.882812 -0.128906 2.40625 -0.390625 C 1.925781 -0.648438 1.6875 -1.019531 1.6875 -1.5 Z M 1.6875 -1.5 "/></g></g></g><g fill="#333333" fill-opacity="1"><g transform="translate(222.878722, 80.560733)"><g><path d="M 0.125 -2 C 0.125 -2.0625 0.144531 -2.175781 0.1875 -2.34375 L 6.015625 -21.453125 C 6.179688 -21.972656 6.5625 -22.375 7.15625 -22.65625 C 7.75 -22.9375 8.429688 -23.078125 9.203125 -23.078125 C 9.972656 -23.078125 10.65625 -22.9375 11.25 -22.65625 C 11.851562 -22.375 12.238281 -21.972656 12.40625 -21.453125 L 18.25 -2.34375 C 18.289062 -2.175781 18.3125 -2.0625 18.3125 -2 C 18.3125 -1.457031 17.972656 -0.988281 17.296875 -0.59375 C 16.617188 -0.195312 15.914062 0 15.1875 0 C 14.289062 0 13.757812 -0.300781 13.59375 -0.90625 L 12.53125 -4.828125 L 5.921875 -4.828125 L 4.859375 -0.90625 C 4.691406 -0.300781 4.15625 0 3.25 0 C 2.519531 0 1.816406 -0.195312 1.140625 -0.59375 C 0.460938 -0.988281 0.125 -1.457031 0.125 -2 Z M 6.921875 -8.578125 L 11.484375 -8.578125 L 9.203125 -16.96875 Z M 6.921875 -8.578125 "/></g></g></g><g fill="#333333" fill-opacity="1"><g transform="translate(241.320671, 80.560733)"><g><path d="M 1.6875 -1.5 L 1.6875 -21.421875 C 1.6875 -21.898438 1.925781 -22.265625 2.40625 -22.515625 C 2.882812 -22.765625 3.457031 -22.890625 4.125 -22.890625 C 4.800781 -22.890625 5.378906 -22.765625 5.859375 -22.515625 C 6.335938 -22.265625 6.578125 -21.898438 6.578125 -21.421875 L 6.578125 -1.5 C 6.578125 -1.019531 6.335938 -0.648438 5.859375 -0.390625 C 5.378906 -0.128906 4.800781 0 4.125 0 C 3.457031 0 2.882812 -0.128906 2.40625 -0.390625 C 1.925781 -0.648438 1.6875 -1.019531 1.6875 -1.5 Z M 1.6875 -1.5 "/></g></g></g><g fill="#333333" fill-opacity="1"><g transform="translate(249.586672, 80.560733)"><g><path d="M 1.6875 -1.46875 L 1.6875 -21.421875 C 1.6875 -21.816406 1.882812 -22.160156 2.28125 -22.453125 C 2.675781 -22.742188 3.1875 -22.890625 3.8125 -22.890625 L 9.359375 -22.890625 C 11.703125 -22.890625 13.570312 -22.289062 14.96875 -21.09375 C 16.363281 -19.90625 17.0625 -18.039062 17.0625 -15.5 L 17.0625 -7.390625 C 17.0625 -4.835938 16.363281 -2.96875 14.96875 -1.78125 C 13.570312 -0.59375 11.703125 0 9.359375 0 L 3.8125 0 C 3.1875 0 2.675781 -0.144531 2.28125 -0.4375 C 1.882812 -0.726562 1.6875 -1.070312 1.6875 -1.46875 Z M 6.578125 -4.265625 L 9.359375 -4.265625 C 11.242188 -4.265625 12.1875 -5.304688 12.1875 -7.390625 L 12.1875 -15.5 C 12.1875 -17.582031 11.242188 -18.625 9.359375 -18.625 L 6.578125 -18.625 Z M 6.578125 -4.265625 "/></g></g></g></svg>